<svg xmlns="http://www.w3.org/2000/svg" xmlns:xlink="http://www.w3.org/1999/xlink" viewBox="0 0 560.78 385.93"><defs><style>.cls-1{fill:none;}.cls-2{isolation:isolate;}.cls-16,.cls-3{opacity:0.5;}.cls-4{fill:url(#Áåçûìÿííûé_ãðàäèåíò_81);}.cls-26,.cls-27,.cls-28,.cls-29,.cls-5{fill:#a0f2fe;}.cls-6{fill:url(#Áåçûìÿííûé_ãðàäèåíò_144);}.cls-13,.cls-7{opacity:0.25;}.cls-13,.cls-20,.cls-21,.cls-7{mix-blend-mode:lighten;}.cls-7{fill:url(#Áåçûìÿííûé_ãðàäèåíò_53);}.cls-8{fill:#482bb8;}.cls-14,.cls-19,.cls-29,.cls-8{opacity:0.2;}.cls-9{fill:#340d58;}.cls-10{fill:#324db5;}.cls-11{fill:url(#Áåçûìÿííûé_ãðàäèåíò_81-2);}.cls-12{fill:url(#Áåçûìÿííûé_ãðàäèåíò_144-2);}.cls-13{fill:url(#Áåçûìÿííûé_ãðàäèåíò_53-2);}.cls-15,.cls-16,.cls-17,.cls-18,.cls-19{fill:#63bdfe;}.cls-17{opacity:0.3;}.cls-18,.cls-20,.cls-21,.cls-22,.cls-28{opacity:0.4;}.cls-20{fill:url(#Áåçûìÿííûé_ãðàäèåíò_72);}.cls-21{fill:url(#Áåçûìÿííûé_ãðàäèåíò_72-2);}.cls-22{fill:#73cffe;}.cls-23{fill:#66c6fe;}.cls-24{fill:url(#Áåçûìÿííûé_ãðàäèåíò_144-3);}.cls-25{fill:#fff;}.cls-26,.cls-48{opacity:0.8;}.cls-27,.cls-43{opacity:0.6;}.cls-30{opacity:0.15;}.cls-31{fill:#9ffff8;}.cls-32{fill:#42e8e0;}.cls-33{fill:#a3f5fe;}.cls-34{fill:url(#Áåçûìÿííûé_ãðàäèåíò_92);}.cls-35,.cls-45,.cls-48{fill:#453c9e;}.cls-35,.cls-46{opacity:0.7;}.cls-36{fill:url(#Áåçûìÿííûé_ãðàäèåíò_424);}.cls-37{fill:url(#Áåçûìÿííûé_ãðàäèåíò_7);}.cls-38{fill:#18b2a3;}.cls-39{fill:#a7f4fe;}.cls-40{fill:url(#Áåçûìÿííûé_ãðàäèåíò_424-2);}.cls-41{fill:url(#Áåçûìÿííûé_ãðàäèåíò_92-2);}.cls-42{fill:url(#Áåçûìÿííûé_ãðàäèåíò_7-2);}.cls-43,.cls-44{fill:#24126a;}.cls-46{fill:url(#Áåçûìÿííûé_ãðàäèåíò_480);}.cls-47{fill:url(#Áåçûìÿííûé_ãðàäèåíò_92-3);}.cls-49{opacity:0.1;}.cls-50{clip-path:url(#clip-path);}</style><radialGradient id="Áåçûìÿííûé_ãðàäèåíò_81" cx="581.44" cy="407.84" r="113.12" gradientTransform="matrix(1, 0, 0.08, 1, -166.58, 0)" gradientUnits="userSpaceOnUse"><stop offset="0" stop-color="#53a5f8"/><stop offset="0.69" stop-color="#79cefc"/><stop offset="1" stop-color="#8ce2fe"/></radialGradient><radialGradient id="Áåçûìÿííûé_ãðàäèåíò_144" cx="635.91" cy="150.63" r="210.19" gradientTransform="matrix(1, 0, 0.08, 1, -166.58, 0)" gradientUnits="userSpaceOnUse"><stop offset="0" stop-color="#3e068d"/><stop offset="1" stop-color="#29013e"/></radialGradient><radialGradient id="Áåçûìÿííûé_ãðàäèåíò_53" cx="585.91" cy="371.3" r="210.2" gradientTransform="matrix(1, 0, 0.08, 1, -166.58, 0)" gradientUnits="userSpaceOnUse"><stop offset="0" stop-color="#8ce2fe"/><stop offset="0.06" stop-color="#79cefc"/><stop offset="0.18" stop-color="#53a5f8"/><stop offset="0.27" stop-color="#4b84d2"/><stop offset="0.39" stop-color="#415da6"/><stop offset="0.52" stop-color="#393c81"/><stop offset="0.64" stop-color="#322364"/><stop offset="0.76" stop-color="#2e104f"/><stop offset="0.88" stop-color="#2b0643"/><stop offset="1" stop-color="#2a023f"/></radialGradient><radialGradient id="Áåçûìÿííûé_ãðàäèåíò_81-2" cx="-1194.84" cy="407.84" r="113.12" gradientTransform="matrix(-1, 0, -0.08, 1, -994.85, 0)" xlink:href="#Áåçûìÿííûé_ãðàäèåíò_81"/><radialGradient id="Áåçûìÿííûé_ãðàäèåíò_144-2" cx="-1140.36" cy="150.63" r="210.19" gradientTransform="matrix(-1, 0, -0.08, 1, -994.85, 0)" xlink:href="#Áåçûìÿííûé_ãðàäèåíò_144"/><radialGradient id="Áåçûìÿííûé_ãðàäèåíò_53-2" cx="-1190.36" cy="371.3" r="210.2" gradientTransform="matrix(-1, 0, -0.08, 1, -994.85, 0)" xlink:href="#Áåçûìÿííûé_ãðàäèåíò_53"/><radialGradient id="Áåçûìÿííûé_ãðàäèåíò_72" cx="207.5" cy="220.4" r="180.12" gradientTransform="translate(216.62 -82.17) rotate(45)" gradientUnits="userSpaceOnUse"><stop offset="0" stop-color="#53a5f8"/><stop offset="0.34" stop-color="#446ab6"/><stop offset="0.79" stop-color="#312061"/><stop offset="1" stop-color="#2a023f"/></radialGradient><radialGradient id="Áåçûìÿííûé_ãðàäèåíò_72-2" cx="408.05" cy="220.4" r="180.12" gradientTransform="translate(275.36 -223.98) rotate(45)" xlink:href="#Áåçûìÿííûé_ãðàäèåíò_72"/><radialGradient id="Áåçûìÿííûé_ãðàäèåíò_144-3" cx="346.62" cy="63.28" r="293.11" gradientTransform="matrix(1, 0, 0, 1, 0, 0)" xlink:href="#Áåçûìÿííûé_ãðàäèåíò_144"/><radialGradient id="Áåçûìÿííûé_ãðàäèåíò_92" cx="401.17" cy="228.41" r="244.67" gradientUnits="userSpaceOnUse"><stop offset="0" stop-color="#7fdffe"/><stop offset="0.09" stop-color="#74bae9"/><stop offset="0.2" stop-color="#6a9ad7"/><stop offset="0.31" stop-color="#617fc9"/><stop offset="0.43" stop-color="#5b6bbd"/><stop offset="0.57" stop-color="#565cb5"/><stop offset="0.73" stop-color="#5454b0"/><stop offset="1" stop-color="#5351af"/></radialGradient><linearGradient id="Áåçûìÿííûé_ãðàäèåíò_424" x1="3486.13" y1="1014.23" x2="3533.16" y2="929.56" gradientTransform="matrix(-0.51, -0.86, 0.86, -0.51, 1184.81, 3803.79)" gradientUnits="userSpaceOnUse"><stop offset="0" stop-color="#5761d7"/><stop offset="0.04" stop-color="#5c66d9"/><stop offset="0.09" stop-color="#6a73df"/><stop offset="0.14" stop-color="#8289e8"/><stop offset="0.19" stop-color="#a3a7f5"/><stop offset="0.22" stop-color="#bcbeff"/></linearGradient><linearGradient id="Áåçûìÿííûé_ãðàäèåíò_7" x1="3543.91" y1="1014.54" x2="3512.6" y2="953.34" gradientTransform="matrix(-0.51, -0.86, 0.86, -0.51, 1184.81, 3803.79)" gradientUnits="userSpaceOnUse"><stop offset="0" stop-color="#c0bff6"/><stop offset="0.29" stop-color="#c5c4f7"/><stop offset="0.64" stop-color="#d3d2f9"/><stop offset="1" stop-color="#e9e9fd"/></linearGradient><linearGradient id="Áåçûìÿííûé_ãðàäèåíò_424-2" x1="3493.06" y1="1018.2" x2="3540.08" y2="933.53" xlink:href="#Áåçûìÿííûé_ãðàäèåíò_424"/><radialGradient id="Áåçûìÿííûé_ãðàäèåíò_92-2" cx="3464.1" cy="999.67" r="78.13" gradientTransform="matrix(-0.51, -0.86, 0.86, -0.51, 1184.81, 3803.79)" xlink:href="#Áåçûìÿííûé_ãðàäèåíò_92"/><linearGradient id="Áåçûìÿííûé_ãðàäèåíò_7-2" x1="3550.83" y1="1018.51" x2="3519.52" y2="957.31" xlink:href="#Áåçûìÿííûé_ãðàäèåíò_7"/><linearGradient id="Áåçûìÿííûé_ãðàäèåíò_480" x1="3596.4" y1="1147.42" x2="3498.32" y2="973.64" gradientTransform="matrix(-0.51, -0.86, 0.86, -0.51, 1184.81, 3803.79)" gradientUnits="userSpaceOnUse"><stop offset="0" stop-color="#c0bff6"/><stop offset="0.12" stop-color="#d0cff9"/><stop offset="0.26" stop-color="#e9e9fd"/><stop offset="0.51" stop-color="#c0bff6"/><stop offset="0.62" stop-color="#d0cff9"/><stop offset="0.75" stop-color="#e9e9fd"/><stop offset="1" stop-color="#c0bff6"/></linearGradient><radialGradient id="Áåçûìÿííûé_ãðàäèåíò_92-3" cx="3501.52" cy="1149.52" r="203.65" gradientTransform="matrix(-0.51, -0.86, 0.86, -0.51, 1184.81, 3803.79)" xlink:href="#Áåçûìÿííûé_ãðàäèåíò_92"/><clipPath id="clip-path" transform="translate(-27.38 -36.12)"><polygon class="cls-1" points="371.86 173.89 362.29 179.4 324.18 157.4 324.18 115.09 371.86 142.62 371.86 173.89"/></clipPath></defs><g class="cls-2"><g id="Ñëîé_1" data-name="Ñëîé 1"><g class="cls-3"><path class="cls-4" d="M530.1,346.48l-.52,1.18L495.66,131.21c-1.29-8.19-10.56-14.73-20.74-14.73H363.8c-10.18,0-18.4,6.54-18.37,14.73l.83,216.84-.68-1.2.81,10.12h0a23.42,23.42,0,0,0,23.38,20.89H510.91c12.4,0,21-9.56,20-21.44v0Z" transform="translate(-27.38 -36.12)"/><path class="cls-5" d="M510.07,367.39H368.94a23.36,23.36,0,0,1-23.49-23l-.86-223.67c0-8.19,8.19-14.72,18.37-14.72H474.08c10.18,0,19.45,6.53,20.74,14.72l35.05,223.67C531.85,357,523,367.39,510.07,367.39Z" transform="translate(-27.38 -36.12)"/><path class="cls-6" d="M508.21,363.62h-138a20.93,20.93,0,0,1-21.05-20.49l-1.53-221.51c-.05-7.36,7.32-13.24,16.46-13.24H473.34c9.14,0,17.46,5.88,18.59,13.24l34,221.51C527.69,354.36,519.75,363.62,508.21,363.62Z" transform="translate(-27.38 -36.12)"/><path class="cls-7" d="M508.21,363.62h-138a20.93,20.93,0,0,1-21.05-20.49l-1.53-221.51c-.05-7.36,7.32-13.24,16.46-13.24H473.34c9.14,0,17.46,5.88,18.59,13.24l34,221.51C527.69,354.36,519.75,363.62,508.21,363.62Z" transform="translate(-27.38 -36.12)"/><path class="cls-8" d="M516.85,283.8,491.93,121.62c-1.13-7.36-9.45-13.24-18.59-13.24H364.08c-9.14,0-16.51,5.88-16.46,13.24l0,4C392.67,184.65,449.92,233.53,516.85,283.8Z" transform="translate(-27.38 -36.12)"/><path class="cls-9" d="M429.82,114.54H408.59a1.18,1.18,0,0,1-1.25-.94h0a1,1,0,0,1,1.12-.94h21.19a1.19,1.19,0,0,1,1.26.94h0C431,114.12,430.47,114.54,429.82,114.54Z" transform="translate(-27.38 -36.12)"/><path class="cls-10" d="M446.21,374.27h-12.3a2.17,2.17,0,0,1-1.82-1.33h0c-.35-.81,0-1.51.78-1.51h13.92a1.1,1.1,0,0,1,1,1.51h0A1.76,1.76,0,0,1,446.21,374.27Z" transform="translate(-27.38 -36.12)"/></g><g class="cls-3"><path class="cls-11" d="M84.74,346.48l.52,1.18,33.93-216.45c1.28-8.19,10.55-14.73,20.73-14.73H251c10.18,0,18.4,6.54,18.37,14.73l-.83,216.84.69-1.2L268.45,357h0a23.43,23.43,0,0,1-23.38,20.89H103.93c-12.39,0-21-9.56-20-21.44v0Z" transform="translate(-27.38 -36.12)"/><path class="cls-5" d="M104.77,367.39H245.91a23.37,23.37,0,0,0,23.49-23l.85-223.67c0-8.19-8.19-14.72-18.37-14.72H140.76c-10.18,0-19.45,6.53-20.73,14.72L85,344.42C83,357,91.85,367.39,104.77,367.39Z" transform="translate(-27.38 -36.12)"/><path class="cls-12" d="M106.64,363.62h138a20.92,20.92,0,0,0,21-20.49l1.53-221.51c.06-7.36-7.31-13.24-16.46-13.24H141.5c-9.14,0-17.45,5.88-18.58,13.24l-34,221.51C87.15,354.36,95.09,363.62,106.64,363.62Z" transform="translate(-27.38 -36.12)"/><path class="cls-13" d="M106.64,363.62h138a20.92,20.92,0,0,0,21-20.49l1.53-221.51c.06-7.36-7.31-13.24-16.46-13.24H141.5c-9.14,0-17.45,5.88-18.58,13.24l-34,221.51C87.15,354.36,95.09,363.62,106.64,363.62Z" transform="translate(-27.38 -36.12)"/><path class="cls-8" d="M98,283.8l24.93-162.18c1.13-7.36,9.44-13.24,18.58-13.24H250.76c9.15,0,16.52,5.88,16.46,13.24l0,4C222.17,184.65,164.93,233.53,98,283.8Z" transform="translate(-27.38 -36.12)"/><path class="cls-9" d="M185,114.54h21.22a1.18,1.18,0,0,0,1.25-.94h0a1,1,0,0,0-1.12-.94H185.2a1.21,1.21,0,0,0-1.27.94h0C183.88,114.12,184.37,114.54,185,114.54Z" transform="translate(-27.38 -36.12)"/><path class="cls-10" d="M168.63,374.27h12.31a2.19,2.19,0,0,0,1.82-1.33h0c.34-.81,0-1.51-.79-1.51H168.05a1.11,1.11,0,0,0-1,1.51h0A1.77,1.77,0,0,0,168.63,374.27Z" transform="translate(-27.38 -36.12)"/></g><g class="cls-14"><path class="cls-15" d="M269.53,175.59a158.45,158.45,0,0,0-19.69,19.69l20.82,12.09a159,159,0,0,1,19.68-19.68l-20.81-12.1Z" transform="translate(-27.38 -36.12)"/><path class="cls-15" d="M282.56,166q-3.66,2.33-7.29,5l20.82,12.1c2.41-1.8,4.85-3.48,7.28-5L282.56,166Z" transform="translate(-27.38 -36.12)"/><path class="cls-15" d="M295.7,158.93q-3.65,1.62-7.31,3.65l7.34,4.26c2.44-1.35,4.88-2.56,7.31-3.65l-7.34-4.26Z" transform="translate(-27.38 -36.12)"/><path class="cls-15" d="M308.39,166.31q-3.64,1.62-7.31,3.64l92.66,53.83c2.44-1.34,4.88-2.56,7.31-3.64l-92.66-53.83Z" transform="translate(-27.38 -36.12)"/><path class="cls-15" d="M308.63,154.45a73.54,73.54,0,0,0-7.16,2.16l7.34,4.26a73.54,73.54,0,0,1,7.16-2.16l-7.34-4.26Z" transform="translate(-27.38 -36.12)"/><path class="cls-15" d="M321.33,161.82a69.45,69.45,0,0,0-7.16,2.17l40.07,23.27a73.54,73.54,0,0,1,7.16-2.16l-40.07-23.28Z" transform="translate(-27.38 -36.12)"/><path class="cls-15" d="M367.1,188.41a71.91,71.91,0,0,0-7.16,2.16l46.89,27.25a69.36,69.36,0,0,1,7.16-2.16L367.1,188.41Z" transform="translate(-27.38 -36.12)"/><path class="cls-15" d="M321.09,152.76a54,54,0,0,0-6.86.58l7.34,4.27a54,54,0,0,1,6.86-.59l-7.34-4.26Z" transform="translate(-27.38 -36.12)"/><path class="cls-15" d="M414.35,199.73a57.31,57.31,0,0,1-6.6.41l7.34,4.26a57.4,57.4,0,0,0,6.6-.4l-7.34-4.27Z" transform="translate(-27.38 -36.12)"/><path class="cls-15" d="M400.72,191.81a59.94,59.94,0,0,1-6.6.41l7.33,4.26a59.79,59.79,0,0,0,6.6-.41l-7.33-4.26Z" transform="translate(-27.38 -36.12)"/><path class="cls-15" d="M345.6,159.79a57.58,57.58,0,0,1-6.6.41l48.82,28.36a59.94,59.94,0,0,0,6.6-.41L345.6,159.79Z" transform="translate(-27.38 -36.12)"/><path class="cls-15" d="M358.11,157.12q-3.6,1.09-7.06,1.8l11.38,6.61a69.69,69.69,0,0,0,7.06-1.8l-11.38-6.61Z" transform="translate(-27.38 -36.12)"/><path class="cls-15" d="M376.84,168c-2.39.73-4.75,1.33-7.06,1.8l30.09,17.47c2.31-.47,4.67-1.07,7.06-1.8L376.84,168Z" transform="translate(-27.38 -36.12)"/><path class="cls-15" d="M332.91,152.42a57.53,57.53,0,0,1-6.6.4l7.33,4.27a60,60,0,0,0,6.61-.41l-7.34-4.26Z" transform="translate(-27.38 -36.12)"/><path class="cls-15" d="M345.41,149.74q-3.59,1.09-7.06,1.8l7.34,4.27a72.55,72.55,0,0,0,7.06-1.81l-7.34-4.26Z" transform="translate(-27.38 -36.12)"/><path class="cls-15" d="M358.65,144.49q-3.78,1.83-7.45,3.25l7.34,4.26q3.68-1.42,7.45-3.25l-7.34-4.26Z" transform="translate(-27.38 -36.12)"/><path class="cls-15" d="M372.34,136.64c-2.15,1.42-4.33,2.77-6.52,4l-1.12.63,7.34,4.27,1.12-.64c2.19-1.26,4.36-2.61,6.52-4l-7.34-4.27Z" transform="translate(-27.38 -36.12)"/><path class="cls-15" d="M385.58,126.72c-2.39,2-4.83,3.93-7.29,5.75l7.34,4.27q3.69-2.75,7.29-5.76l-7.34-4.26Z" transform="translate(-27.38 -36.12)"/><path class="cls-15" d="M398.11,115q-3.37,3.48-6.88,6.71l7.34,4.26q3.49-3.23,6.88-6.7L398.11,115Z" transform="translate(-27.38 -36.12)"/><path class="cls-15" d="M413.23,189.13a70.37,70.37,0,0,1-7.06,1.8l7.33,4.26a70.37,70.37,0,0,0,7.06-1.8l-7.33-4.26Z" transform="translate(-27.38 -36.12)"/><path class="cls-15" d="M426.46,183.88c-2.51,1.22-5,2.3-7.45,3.25l7.33,4.26c2.45-.95,4.94-2,7.45-3.25l-7.33-4.26Z" transform="translate(-27.38 -36.12)"/><path class="cls-15" d="M421.45,165.18c-2.15,1.43-4.32,2.77-6.52,4-.37.21-.74.43-1.11.63l26,15.12,1.11-.64q3.3-1.91,6.52-4l-26-15.12Z" transform="translate(-27.38 -36.12)"/><path class="cls-16" d="M434.69,155.26q-3.58,3-7.29,5.76l26,15.11q3.7-2.74,7.3-5.76l-26-15.11Z" transform="translate(-27.38 -36.12)"/><path class="cls-16" d="M465.92,154.43q-3.37,3.47-6.87,6.7l7.33,4.26c2.33-2.15,4.63-4.39,6.87-6.7l-7.33-4.26Z" transform="translate(-27.38 -36.12)"/><path class="cls-15" d="M426.86,197.06q-3.58,1.09-7.06,1.8l7.34,4.26c2.31-.47,4.67-1.07,7.06-1.8l-7.34-4.26Z" transform="translate(-27.38 -36.12)"/><path class="cls-15" d="M440.1,191.8c-2.52,1.22-5,2.31-7.45,3.25l7.33,4.27c2.45-.95,4.94-2,7.45-3.25l-7.33-4.27Z" transform="translate(-27.38 -36.12)"/><path class="cls-15" d="M453.79,184c-2.16,1.42-4.33,2.77-6.52,4l-1.12.64,7.34,4.26,1.11-.63q3.3-1.9,6.52-4L453.79,184Z" transform="translate(-27.38 -36.12)"/><path class="cls-15" d="M467,174c-2.4,2-4.83,3.94-7.29,5.76l7.33,4.26q3.71-2.73,7.3-5.75L467,174Z" transform="translate(-27.38 -36.12)"/><path class="cls-15" d="M479.56,162.35q-3.37,3.47-6.88,6.71l7.34,4.26c2.33-2.15,4.63-4.39,6.87-6.71l-7.33-4.26Z" transform="translate(-27.38 -36.12)"/><path class="cls-16" d="M479.2,139.51c-1.27,1.42-2.53,2.88-3.77,4.36q-1.38,1.65-2.79,3.27L480,151.4q1.41-1.62,2.79-3.27c1.24-1.48,2.5-2.94,3.77-4.36l-7.33-4.26Z" transform="translate(-27.38 -36.12)"/><path class="cls-16" d="M492.83,147.44c-1.27,1.41-2.52,2.87-3.77,4.35-.92,1.11-1.85,2.19-2.79,3.27l7.34,4.26q1.41-1.6,2.79-3.26,1.86-2.24,3.77-4.36l-7.34-4.26Z" transform="translate(-27.38 -36.12)"/><path class="cls-15" d="M371.34,151.86c-2.51,1.22-5,2.3-7.45,3.25l7.34,4.27q3.67-1.42,7.45-3.25l-7.34-4.27Z" transform="translate(-27.38 -36.12)"/><path class="cls-15" d="M384.41,159.46q-3.78,1.83-7.45,3.25l35.75,20.76c2.45-.95,4.94-2,7.45-3.25l-35.75-20.76Z" transform="translate(-27.38 -36.12)"/><path class="cls-15" d="M398.1,151.61c-2.15,1.42-4.33,2.77-6.52,4l-1.12.63,17.06,9.91,1.11-.63c2.19-1.27,4.37-2.62,6.52-4l-17-9.91Z" transform="translate(-27.38 -36.12)"/><path class="cls-16" d="M411.34,141.69c-2.39,2-4.83,3.93-7.29,5.75l17.05,9.91q3.7-2.73,7.29-5.75l-17.05-9.91Z" transform="translate(-27.38 -36.12)"/><path class="cls-16" d="M423.87,130q-3.37,3.48-6.88,6.71l35.75,20.76q3.51-3.22,6.88-6.71L423.87,130Z" transform="translate(-27.38 -36.12)"/><path class="cls-17" d="M437.14,115.09c-1.27,1.42-2.52,2.87-3.77,4.36q-1.38,1.65-2.79,3.26l35.76,20.76q1.41-1.6,2.79-3.26,1.86-2.24,3.77-4.36l-35.76-20.76Z" transform="translate(-27.38 -36.12)"/><path class="cls-17" d="M411.38,100.12q-1.9,2.13-3.76,4.36-1.38,1.65-2.79,3.26l20,11.64q1.41-1.6,2.79-3.26c1.25-1.49,2.5-2.94,3.77-4.36l-20-11.64Z" transform="translate(-27.38 -36.12)"/><path class="cls-15" d="M385,144c-2.15,1.42-4.33,2.77-6.52,4l-1.11.64,7.33,4.26,1.12-.63c2.19-1.27,4.37-2.62,6.52-4L385,144Z" transform="translate(-27.38 -36.12)"/><path class="cls-15" d="M398.27,134.09c-2.39,2-4.82,3.94-7.29,5.76l7.34,4.26c2.46-1.82,4.9-3.74,7.29-5.75l-7.34-4.27Z" transform="translate(-27.38 -36.12)"/><path class="cls-15" d="M410.8,122.41q-3.37,3.47-6.88,6.71l7.34,4.26q3.51-3.23,6.88-6.71l-7.34-4.26Z" transform="translate(-27.38 -36.12)"/><path class="cls-15" d="M333.78,160.13a54,54,0,0,0-6.86.59L389.37,197a52.38,52.38,0,0,1,6.86-.59l-62.45-36.28Z" transform="translate(-27.38 -36.12)"/><path class="cls-15" d="M402.53,200.07a54,54,0,0,0-6.85.59l23.9,13.89a55.9,55.9,0,0,1,6.86-.59l-23.91-13.89Z" transform="translate(-27.38 -36.12)"/><path class="cls-15" d="M427.18,207.18a57.61,57.61,0,0,1-6.61.41L431.66,214a57.58,57.58,0,0,0,6.6-.41l-11.08-6.44Z" transform="translate(-27.38 -36.12)"/><path class="cls-15" d="M439.68,204.51q-3.58,1.1-7.06,1.8l11.09,6.44q3.46-.7,7.06-1.8l-11.09-6.44Z" transform="translate(-27.38 -36.12)"/><path class="cls-15" d="M452.92,199.25c-2.52,1.22-5,2.31-7.45,3.25l11.08,6.44c2.45-.94,4.94-2,7.45-3.24l-11.08-6.45Z" transform="translate(-27.38 -36.12)"/><path class="cls-15" d="M466.61,191.41c-2.16,1.42-4.33,2.77-6.52,4l-1.12.64,11.09,6.44,1.11-.64c2.19-1.26,4.37-2.61,6.52-4l-11.08-6.44Z" transform="translate(-27.38 -36.12)"/><path class="cls-15" d="M479.85,181.48c-2.39,2-4.83,3.94-7.29,5.76l11.08,6.44q3.71-2.73,7.29-5.76l-11.08-6.44Z" transform="translate(-27.38 -36.12)"/><path class="cls-15" d="M492.38,169.8q-3.37,3.48-6.88,6.71L496.58,183q3.51-3.24,6.88-6.71l-11.08-6.44Z" transform="translate(-27.38 -36.12)"/><path class="cls-16" d="M505.65,154.89c-1.27,1.42-2.52,2.87-3.77,4.36-.92,1.1-1.85,2.18-2.79,3.26L510.18,169q1.41-1.6,2.79-3.26,1.86-2.24,3.77-4.36l-11.09-6.44Z" transform="translate(-27.38 -36.12)"/><path class="cls-16" d="M493.24,125.62q-3.57,3.1-7.06,6.55L523.72,154c2.32-2.29,4.68-4.48,7-6.54Z" transform="translate(-27.38 -36.12)"/><path class="cls-17" d="M425.42,86.23c-2.37,2.07-4.73,4.25-7.05,6.54l61.51,35.73c2.32-2.29,4.68-4.47,7.05-6.54L425.42,86.23Z" transform="translate(-27.38 -36.12)"/><path class="cls-15" d="M309.16,181.49q-3.66,2.34-7.29,5l34.76,20.18c2.41-1.8,4.85-3.47,7.28-5l-34.75-20.19Z" transform="translate(-27.38 -36.12)"/><path class="cls-15" d="M349.72,205.05c-2.43,1.55-4.87,3.23-7.28,5l16.06,9.33c2.41-1.8,4.85-3.47,7.28-5l-16.06-9.33Z" transform="translate(-27.38 -36.12)"/><path class="cls-15" d="M371.85,217.91a146.49,146.49,0,0,0-32.71,29.24l16.06,9.34a146.3,146.3,0,0,1,32.71-29.25l-16.06-9.33Z" transform="translate(-27.38 -36.12)"/><path class="cls-15" d="M296.13,191.05a158.45,158.45,0,0,0-19.69,19.69l56.63,32.89a158.39,158.39,0,0,1,19.68-19.69l-56.62-32.89Z" transform="translate(-27.38 -36.12)"/><path class="cls-17" d="M522.67,117.4a117.16,117.16,0,0,0-12.13,8.08l-77.8-45.2a120.58,120.58,0,0,1,12.14-8.08l77.79,45.2Z" transform="translate(-27.38 -36.12)"/><path class="cls-16" d="M550.23,133.41a118.9,118.9,0,0,0-12.14,8.08l-19.9-11.57a120.47,120.47,0,0,1,12.13-8.08l19.91,11.57Z" transform="translate(-27.38 -36.12)"/><path class="cls-18" d="M83.59,326.56a131.89,131.89,0,0,1-13.46,8.94L49.32,323.41a133.12,133.12,0,0,0,13.46-9l20.81,12.1Z" transform="translate(-27.38 -36.12)"/><path class="cls-18" d="M75.67,303.6q-3.48,3.25-7.08,6.26L89.4,322q3.6-3,7.08-6.27L75.67,303.6Z" transform="translate(-27.38 -36.12)"/><path class="cls-18" d="M87.77,291.12q-3.24,3.67-6.63,7.13l7.34,4.27q3.38-3.47,6.63-7.14l-7.34-4.26Z" transform="translate(-27.38 -36.12)"/><path class="cls-19" d="M100.46,298.49q-3.24,3.67-6.63,7.14l92.66,53.83q3.39-3.46,6.63-7.14l-92.66-53.83Z" transform="translate(-27.38 -36.12)"/><path class="cls-18" d="M99.73,277.67q-3.47,3.54-6.8,7.41l7.34,4.26c2.22-2.57,4.49-5,6.79-7.41l-7.33-4.26Z" transform="translate(-27.38 -36.12)"/><path class="cls-18" d="M112.42,285q-3.45,3.54-6.8,7.42l40.08,23.27q3.35-3.87,6.8-7.41L112.42,285Z" transform="translate(-27.38 -36.12)"/><path class="cls-19" d="M158.19,311.62q-3.45,3.56-6.8,7.42l46.89,27.25q3.34-3.87,6.8-7.42l-46.89-27.25Z" transform="translate(-27.38 -36.12)"/><path class="cls-15" d="M112.42,266q-3.6,2.93-7.13,6.21l7.34,4.27q3.53-3.28,7.13-6.22L112.42,266Z" transform="translate(-27.38 -36.12)"/><path class="cls-18" d="M206.93,304q-3.66,2.26-7.3,4.92l7.34,4.26q3.63-2.64,7.3-4.91L206.93,304Z" transform="translate(-27.38 -36.12)"/><path class="cls-18" d="M174.6,285.21q-3.66,2.27-7.31,4.91l26,15.11q3.63-2.64,7.3-4.91l-26-15.11Z" transform="translate(-27.38 -36.12)"/><path class="cls-18" d="M138.17,264q-3.66,2.26-7.3,4.92L161,286.46q3.64-2.64,7.3-4.91L138.17,264Z" transform="translate(-27.38 -36.12)"/><path class="cls-15" d="M151.3,257.17c-2.43,1-4.86,2.21-7.3,3.51l11.39,6.62q3.66-2,7.3-3.52l-11.39-6.61Z" transform="translate(-27.38 -36.12)"/><path class="cls-15" d="M170,268.05c-2.42,1-4.86,2.21-7.3,3.52l11.39,6.61q3.66-1.95,7.3-3.51L170,268.05Z" transform="translate(-27.38 -36.12)"/><path class="cls-15" d="M125.48,256.67q-3.66,2.26-7.3,4.91l7.34,4.26q3.63-2.64,7.3-4.91l-7.34-4.26Z" transform="translate(-27.38 -36.12)"/><path class="cls-15" d="M138.61,249.79q-3.65,1.56-7.3,3.51l7.34,4.27q3.66-2,7.3-3.52l-7.34-4.26Z" transform="translate(-27.38 -36.12)"/><path class="cls-15" d="M151.52,245.55a72,72,0,0,0-7.15,2l7.34,4.27a68.74,68.74,0,0,1,7.15-2l-7.34-4.26Z" transform="translate(-27.38 -36.12)"/><path class="cls-15" d="M163.91,244.11a54.82,54.82,0,0,0-6.82.44l7.34,4.27a51.23,51.23,0,0,1,6.82-.44l-7.34-4.27Z" transform="translate(-27.38 -36.12)"/><path class="cls-15" d="M175.73,243.65a60.94,60.94,0,0,1-6.64.53l7.34,4.26a61.14,61.14,0,0,0,6.64-.53l-7.34-4.26Z" transform="translate(-27.38 -36.12)"/><path class="cls-15" d="M188.32,240.74q-3.62,1.17-7.11,1.93l7.34,4.27q3.49-.78,7.11-1.93l-7.34-4.27Z" transform="translate(-27.38 -36.12)"/><path class="cls-18" d="M187.72,278.33c-2.42,1-4.86,2.21-7.3,3.52l26,15.11c2.44-1.31,4.88-2.48,7.3-3.52l-26-15.11Z" transform="translate(-27.38 -36.12)"/><path class="cls-18" d="M200.63,274.09a68.57,68.57,0,0,0-7.14,2l26,15.11a69.28,69.28,0,0,1,7.14-2l-26-15.11Z" transform="translate(-27.38 -36.12)"/><path class="cls-18" d="M231.73,283.51a51.12,51.12,0,0,0-6.82.44l7.33,4.26a51.12,51.12,0,0,1,6.82-.44l-7.33-4.26Z" transform="translate(-27.38 -36.12)"/><path class="cls-15" d="M243.55,283a61.34,61.34,0,0,1-6.64.53l7.33,4.26a61.14,61.14,0,0,0,6.64-.53L243.55,283Z" transform="translate(-27.38 -36.12)"/><path class="cls-15" d="M256.14,280.13q-3.62,1.17-7.11,1.93l7.33,4.26q3.5-.76,7.11-1.93l-7.33-4.26Z" transform="translate(-27.38 -36.12)"/><path class="cls-18" d="M220.05,297.11c-2.42,1-4.85,2.21-7.29,3.51l7.33,4.26c2.44-1.3,4.88-2.47,7.3-3.51l-7.34-4.26Z" transform="translate(-27.38 -36.12)"/><path class="cls-18" d="M233,292.86a71.29,71.29,0,0,0-7.15,2l7.34,4.26a71.78,71.78,0,0,1,7.14-2L233,292.86Z" transform="translate(-27.38 -36.12)"/><path class="cls-15" d="M245.36,291.43a51.23,51.23,0,0,0-6.82.44l7.34,4.26a54.7,54.7,0,0,1,6.82-.44l-7.34-4.26Z" transform="translate(-27.38 -36.12)"/><path class="cls-15" d="M257.18,291a58.73,58.73,0,0,1-6.64.53l7.34,4.27a61.14,61.14,0,0,0,6.64-.53L257.18,291Z" transform="translate(-27.38 -36.12)"/><path class="cls-15" d="M269.77,288.06c-2.41.77-4.78,1.42-7.11,1.93l7.34,4.26q3.5-.76,7.11-1.93l-7.34-4.26Z" transform="translate(-27.38 -36.12)"/><path class="cls-15" d="M271.1,273.79c-2.53,1.33-5,2.51-7.52,3.56l7.33,4.26c2.48-1.05,5-2.23,7.52-3.56l-7.33-4.26Z" transform="translate(-27.38 -36.12)"/><path class="cls-15" d="M284.74,281.71c-2.54,1.33-5.05,2.51-7.52,3.56l7.33,4.27q3.72-1.57,7.52-3.56l-7.33-4.27Z" transform="translate(-27.38 -36.12)"/><path class="cls-15" d="M164.21,252.92a69.44,69.44,0,0,0-7.15,2l7.34,4.26a71.2,71.2,0,0,1,7.15-2l-7.34-4.27Z" transform="translate(-27.38 -36.12)"/><path class="cls-15" d="M177.28,260.52a71.2,71.2,0,0,0-7.15,2l17.05,9.91a72,72,0,0,1,7.15-2l-17.05-9.91Z" transform="translate(-27.38 -36.12)"/><path class="cls-15" d="M189.67,259.08a54.82,54.82,0,0,0-6.82.44l35.75,20.77a53,53,0,0,1,6.83-.45l-35.76-20.76Z" transform="translate(-27.38 -36.12)"/><path class="cls-15" d="M201.49,258.61a58.73,58.73,0,0,1-6.64.53l35.76,20.77a61.34,61.34,0,0,0,6.64-.53l-35.76-20.77Z" transform="translate(-27.38 -36.12)"/><path class="cls-15" d="M214.08,255.71q-3.62,1.17-7.11,1.93l35.76,20.76q3.5-.76,7.1-1.93l-35.75-20.76Z" transform="translate(-27.38 -36.12)"/><path class="cls-15" d="M229.05,249.37q-3.81,2-7.52,3.56l35.75,20.76q3.72-1.57,7.52-3.56l-35.75-20.76Z" transform="translate(-27.38 -36.12)"/><path class="cls-15" d="M203.29,234.4c-2.54,1.32-5,2.51-7.52,3.56l20,11.64q3.7-1.57,7.52-3.56l-20-11.64Z" transform="translate(-27.38 -36.12)"/><path class="cls-15" d="M176.61,251.49a51.27,51.27,0,0,0-6.83.44l7.34,4.26a54.82,54.82,0,0,1,6.82-.44l-7.33-4.26Z" transform="translate(-27.38 -36.12)"/><path class="cls-15" d="M188.43,251a61.32,61.32,0,0,1-6.65.53l7.34,4.26a58.73,58.73,0,0,0,6.64-.53L188.43,251Z" transform="translate(-27.38 -36.12)"/><path class="cls-15" d="M201,248.12c-2.4.77-4.77,1.42-7.1,1.93l7.33,4.26q3.49-.76,7.11-1.93L201,248.12Z" transform="translate(-27.38 -36.12)"/><path class="cls-18" d="M125.11,273.39q-3.6,2.94-7.13,6.22l62.45,36.27c2.36-2.18,4.74-4.26,7.14-6.21l-62.46-36.28Z" transform="translate(-27.38 -36.12)"/><path class="cls-18" d="M193.87,313.33q-3.6,2.94-7.13,6.22l23.9,13.89q3.53-3.29,7.13-6.22l-23.9-13.89Z" transform="translate(-27.38 -36.12)"/><path class="cls-18" d="M219.75,311.43c-2.44,1.52-4.88,3.15-7.3,4.92l11.08,6.44q3.65-2.64,7.3-4.92l-11.08-6.44Z" transform="translate(-27.38 -36.12)"/><path class="cls-18" d="M232.88,304.56c-2.43,1-4.86,2.21-7.3,3.51l11.08,6.44c2.44-1.3,4.88-2.48,7.3-3.51l-11.08-6.44Z" transform="translate(-27.38 -36.12)"/><path class="cls-15" d="M245.79,300.31a71.29,71.29,0,0,0-7.15,2l11.08,6.44a72.05,72.05,0,0,1,7.15-2l-11.08-6.44Z" transform="translate(-27.38 -36.12)"/><path class="cls-15" d="M258.18,298.88a51.23,51.23,0,0,0-6.82.44l11.08,6.44a51.27,51.27,0,0,1,6.83-.44l-11.09-6.44Z" transform="translate(-27.38 -36.12)"/><path class="cls-15" d="M270,298.41a58.73,58.73,0,0,1-6.64.53l11.09,6.44a58.91,58.91,0,0,0,6.64-.53L270,298.41Z" transform="translate(-27.38 -36.12)"/><path class="cls-15" d="M282.59,295.51c-2.41.77-4.78,1.42-7.11,1.93l11.09,6.44q3.49-.76,7.1-1.93l-11.08-6.44Z" transform="translate(-27.38 -36.12)"/><path class="cls-15" d="M297.56,289.16c-2.54,1.33-5.05,2.51-7.52,3.56l11.08,6.45c2.48-1.05,5-2.24,7.52-3.56l-11.08-6.45Z" transform="translate(-27.38 -36.12)"/><path class="cls-15" d="M286.41,264.29q-3.72,2.67-7.53,5l37.54,21.81q3.81-2.37,7.53-5l-37.54-21.81Z" transform="translate(-27.38 -36.12)"/><path class="cls-15" d="M218.6,224.89q-3.72,2.69-7.53,5.05l61.51,35.73q3.81-2.35,7.53-5.05L218.6,224.89Z" transform="translate(-27.38 -36.12)"/><path class="cls-19" d="M102.27,319.06q-3.48,3.26-7.08,6.26l34.75,20.18q3.6-3,7.08-6.26l-34.75-20.18Z" transform="translate(-27.38 -36.12)"/><path class="cls-19" d="M142.83,342.61q-3.48,3.27-7.08,6.27l16.06,9.33q3.6-3,7.08-6.26l-16.06-9.34Z" transform="translate(-27.38 -36.12)"/><path class="cls-19" d="M181,364.81a144.85,144.85,0,0,1-26.35,19.8l-16-9.33A144.85,144.85,0,0,0,165,355.47L181,364.81Z" transform="translate(-27.38 -36.12)"/><path class="cls-19" d="M146,362.81a131.46,131.46,0,0,1-13.47,8.94L75.92,338.86a131.34,131.34,0,0,0,13.46-8.94L146,362.81Z" transform="translate(-27.38 -36.12)"/><path class="cls-15" d="M244.79,201.13a173,173,0,0,1-18.72,18l77.79,45.19a173,173,0,0,0,18.72-18l-77.79-45.19Z" transform="translate(-27.38 -36.12)"/><path class="cls-15" d="M330.23,250.77a172.94,172.94,0,0,1-18.72,18l19.91,11.57a172.94,172.94,0,0,0,18.72-18l-19.91-11.57Z" transform="translate(-27.38 -36.12)"/></g><circle class="cls-20" cx="207.5" cy="220.4" r="180.12" transform="translate(-122.45 175.16) rotate(-45)"/><circle class="cls-21" cx="408.05" cy="220.4" r="180.12" transform="translate(-63.71 316.97) rotate(-45)"/><path class="cls-22" d="M307.56,362.2v-2.42c.8,0,1.61,0,2.41,0l0,2.43Zm-6.12-.08L299,362l.11-2.43,2.4.09Zm14.69-.14-.12-2.42,2.42-.14.15,2.42Zm-23.23-.32c-.82-.06-1.63-.13-2.44-.21l.22-2.41,2.4.2Zm31.78-.3-.23-2.42,2.4-.25.27,2.41Zm-40.3-.56-2.42-.32.33-2.41,2.39.32Zm48.81-.47-.35-2.4,2.4-.37.38,2.4Zm-57.27-.8c-.81-.14-1.61-.28-2.41-.44l.45-2.38,2.37.43Zm65.73-.64-.47-2.38,2.37-.48.5,2.38Zm-74.13-1-2.38-.56.57-2.36,2.34.55ZM350,357l-.58-2.35c.78-.2,1.56-.39,2.34-.6l.61,2.35C351.61,356.65,350.81,356.85,350,357Zm-90.8-1.27-2.35-.67.68-2.33c.77.23,1.54.45,2.32.66Zm99.07-1-.69-2.33,2.31-.71.73,2.32ZM251,353.28l-2.31-.79.8-2.29c.75.26,1.51.52,2.28.77Zm115.42-1.16-.81-2.28,2.27-.83.85,2.28ZM243,350.38c-.76-.29-1.51-.59-2.27-.9l.91-2.25,2.24.89Zm131.49-1.32-.93-2.25,2.23-.94,1,2.23C376,348.43,375.21,348.74,374.45,349.06Zm-139.39-2c-.75-.33-1.49-.67-2.22-1l1-2.21,2.19,1Zm147.23-1.5-1-2.19,2.18-1.05,1.07,2.18Zm-155-2.2-2.17-1.12,1.14-2.15c.71.37,1.42.75,2.14,1.11Zm162.61-1.66-1.15-2.14c.72-.38,1.42-.77,2.13-1.16l1.18,2.12ZM219.8,339.29l-2.1-1.23,1.24-2.09c.69.41,1.38.82,2.08,1.22Zm177.59-1.83-1.26-2.08c.69-.41,1.38-.84,2.06-1.27l1.29,2.06ZM212.5,334.82l-2-1.35,1.36-2c.66.44,1.33.89,2,1.32Zm192.11-2-1.37-2c.67-.45,1.33-.91,2-1.38l1.39,2C406,331.89,405.28,332.35,404.61,332.82ZM205.45,330c-.66-.48-1.32-1-2-1.45l1.46-1.94,1.94,1.43Zm206.12-2.17-1.48-1.93c.64-.49,1.28-1,1.91-1.48l1.5,1.91Zm-212.91-3.06c-.63-.51-1.26-1-1.88-1.56l1.56-1.86c.62.52,1.23,1,1.86,1.54Zm219.58-2.34-1.58-1.84c.61-.53,1.22-1.05,1.82-1.59l1.61,1.82Zm-226.07-3.26c-.6-.55-1.2-1.1-1.79-1.66L192,315.7l1.77,1.64Zm232.43-2.5-1.68-1.75,1.73-1.68,1.71,1.72C425.78,315.5,425.19,316.07,424.6,316.63ZM186,313.18c-.57-.58-1.14-1.17-1.7-1.76l1.76-1.67c.55.58,1.11,1.16,1.67,1.73Zm244.62-2.65-1.78-1.66c.55-.59,1.1-1.18,1.64-1.78l1.8,1.63C431.74,309.32,431.19,309.93,430.63,310.53Zm-250.44-3.64c-.54-.62-1.07-1.23-1.6-1.86l1.86-1.56c.51.61,1,1.22,1.57,1.82Zm256.11-2.81-1.87-1.55c.52-.62,1-1.24,1.53-1.87l1.89,1.52C437.34,302.82,436.82,303.45,436.3,304.08Zm-261.56-3.81c-.5-.65-1-1.29-1.49-1.95l1.95-1.45c.48.64,1,1.28,1.46,1.91Zm266.85-2.95-2-1.44q.72-1,1.41-1.95l2,1.4Zm-271.91-4-.32-.47-1-1.56,2-1.34c.34.51.68,1,1,1.54l.32.46Zm276.79-3.08-2-1.32q.66-1,1.29-2l2.06,1.28C447.35,288.88,446.91,289.57,446.47,290.26Zm-281.42-4.14c-.42-.7-.83-1.4-1.24-2.11l2.1-1.21,1.22,2.08Zm285.87-3.21-2.12-1.19c.4-.71.79-1.41,1.17-2.11l2.14,1.15C451.72,281.48,451.32,282.2,450.92,282.91Zm-290-4.27q-.57-1.09-1.11-2.19l2.17-1.08,1.09,2.15Zm294-3.33-2.19-1.06c.35-.73.7-1.45,1-2.18l2.2,1Zm-297.76-4.4c-.33-.75-.66-1.5-1-2.25l2.24-1c.31.74.63,1.48,1,2.21Zm301.26-3.45-2.24-.92c.3-.74.6-1.49.89-2.24l2.26.89C459,266,458.72,266.71,458.41,267.46ZM153.93,263c-.28-.77-.56-1.54-.83-2.31l2.3-.79c.26.75.53,1.51.81,2.26Zm307.48-3.53-2.3-.78c.26-.76.51-1.52.75-2.29l2.31.73C461.93,257.86,461.67,258.64,461.41,259.42Zm-310.19-4.61c-.23-.79-.46-1.57-.67-2.36l2.34-.65c.21.77.43,1.55.66,2.32Zm312.67-3.62-2.35-.62c.21-.78.41-1.56.6-2.33l2.36.58C464.3,249.61,464.1,250.4,463.89,251.19ZM149.05,246.5c-.18-.8-.36-1.6-.52-2.4l2.38-.49c.16.79.33,1.57.51,2.35Zm316.78-3.68-2.39-.46q.24-1.19.45-2.37l2.39.42Zm-318.4-4.75c-.13-.81-.25-1.62-.37-2.43l2.41-.33c.11.79.23,1.59.35,2.38Zm319.78-3.72L464.8,234c.06-.46.11-.92.17-1.37l.11-1,2.42.27-.12,1C467.32,233.42,467.27,233.88,467.21,234.35Zm-320.85-4.8c-.07-.82-.14-1.63-.2-2.45l2.42-.17c.06.8.13,1.6.2,2.4ZM468,225.8l-2.42-.15c0-.8.09-1.61.12-2.41l2.43.1C468.11,224.16,468.07,225,468,225.8ZM145.87,221c0-.81,0-1.63,0-2.45h2.43q0,1.2,0,2.4Zm320-3.75q0-1.2,0-2.4l2.43-.06c0,.81,0,1.63,0,2.45Zm-317.46-4.73-2.42-.1c0-.82.07-1.64.13-2.46l2.42.15C148.45,210.88,148.41,211.69,148.37,212.49Zm317.14-3.69c-.06-.8-.12-1.6-.2-2.4l2.42-.22c.08.82.14,1.63.2,2.45ZM149,204.08l-2.41-.26c.09-.81.19-1.63.29-2.44l2.41.31C149.2,202.49,149.1,203.29,149,204.08Zm315.61-3.66c-.11-.79-.23-1.58-.35-2.38l2.4-.38.36,2.43Zm-314.41-4.68-2.39-.42.45-2.41,2.39.47C150.5,194.16,150.35,195,150.21,195.74Zm313-3.62c-.17-.79-.34-1.57-.52-2.35l2.37-.54c.18.8.36,1.6.52,2.4ZM152,187.5l-2.36-.58c.19-.8.4-1.59.61-2.38l2.34.62C152.35,185.94,152.15,186.72,152,187.5Zm309.25-3.57c-.22-.78-.44-1.55-.67-2.32l2.33-.69c.24.79.46,1.57.68,2.36Zm-307-4.55-2.31-.73c.24-.78.5-1.56.76-2.34l2.3.77C154.72,177.85,154.47,178.61,154.23,179.38Zm304.47-3.51,0-.12q-.39-1.16-.81-2.28l2.28-.84c.28.77.55,1.54.82,2.31l.05.15ZM157,171.42l-2.27-.88c.3-.76.6-1.52.91-2.28l2.25.92C157.61,169.92,157.31,170.67,157,171.42Zm298.63-3.56c-.32-.74-.63-1.48-1-2.21l2.22-1c.33.75.66,1.5,1,2.25ZM160.3,163.65l-2.2-1c.34-.75.69-1.48,1-2.22l2.19,1.06C161,162.2,160.64,162.92,160.3,163.65Zm291.84-3.46c-.36-.72-.72-1.44-1.09-2.15l2.16-1.12,1.11,2.19Zm-288.08-4.08L161.92,155c.39-.72.79-1.44,1.19-2.15l2.11,1.19C164.83,154.7,164.44,155.4,164.06,156.11Zm284.1-3.36c-.4-.7-.8-1.39-1.22-2.08l2.09-1.25c.42.7.83,1.41,1.24,2.12Zm-279.87-3.94-2.07-1.28,1.31-2.07,2,1.32C169.14,147.45,168.71,148.13,168.29,148.81Zm275.45-3.24-1.35-2,2-1.37c.46.67.92,1.35,1.37,2ZM173,141.79l-2-1.41c.47-.66.95-1.33,1.43-2l2,1.43C173.88,140.48,173.41,141.13,173,141.79Zm265.93-3.12c-.49-.64-1-1.28-1.47-1.91l1.92-1.49c.5.64,1,1.29,1.49,1.95ZM178,135.05l-1.9-1.52c.52-.63,1-1.27,1.55-1.89l1.87,1.55C179,133.8,178.53,134.43,178,135.05Zm255.58-3c-.42-.51-.85-1-1.29-1.51l-.28-.32,1.83-1.59.28.32,1.32,1.53ZM183.5,128.63,181.7,127c.55-.6,1.1-1.21,1.66-1.8l1.77,1.66C184.58,127.44,184,128,183.5,128.63ZM428,125.8c-.55-.58-1.11-1.16-1.68-1.73l1.74-1.7c.57.58,1.14,1.17,1.7,1.76Zm-238.64-3.26-1.7-1.73c.58-.58,1.17-1.15,1.76-1.71l1.68,1.76C190.48,121.41,189.91,122,189.33,122.54ZM422,119.86l-1.77-1.63,1.63-1.8,1.8,1.66Zm-226.47-3.08L193.9,115l1.85-1.61,1.58,1.85Zm220.15-2.52-1.86-1.53,1.53-1.89,1.89,1.56ZM202,111.38l-1.5-1.91c.64-.51,1.29-1,1.93-1.5l1.48,1.93C203.26,110.38,202.62,110.88,202,111.38ZM409,109l-1.94-1.43,1.43-2,2,1.46Zm-200.28-2.69-1.4-2,2-1.39,1.36,2Zm193.39-2.19q-1-.67-2-1.32l1.31-2c.69.44,1.37.89,2.05,1.34Zm-186.36-2.49-1.29-2.06,2.08-1.29,1.26,2.08Zm179.22-2-2.08-1.22,1.21-2.1,2.11,1.24ZM223.06,97.34l-1.19-2.12c.72-.39,1.43-.79,2.15-1.17l1.15,2.13ZM387.64,95.5l-2.14-1.11,1.1-2.16,2.18,1.12Zm-157.1-2.08-1.08-2.18,2.21-1.06,1,2.19C232,92.71,231.26,93.06,230.54,93.42Zm149.53-1.67c-.72-.34-1.46-.67-2.19-1l1-2.21,2.23,1ZM238.21,89.88l-1-2.23,2.25-1,.93,2.24Zm134.12-1.49c-.75-.3-1.5-.6-2.25-.88l.88-2.27,2.28.9ZM246.05,86.73l-.85-2.27c.76-.29,1.53-.57,2.3-.84l.82,2.28Zm118.37-1.31-2.29-.77.77-2.31,2.31.79ZM254,84l-.73-2.32,2.34-.72.7,2.32Q255.19,83.6,254,84Zm102.34-1.13c-.77-.23-1.55-.45-2.32-.66l.65-2.34c.78.21,1.57.44,2.35.67Zm-94.22-1.23-.62-2.35,2.37-.61.59,2.36Q263.32,81.3,262.15,81.62Zm86.06-.94-2.36-.55.54-2.37,2.38.56Zm-77.84-1-.5-2.37c.79-.17,1.59-.34,2.4-.49l.47,2.38Zm69.57-.75-2.37-.44.42-2.39,2.41.44Zm-61.26-.8-.39-2.4,2.42-.37.35,2.4Zm52.93-.57-2.4-.32.31-2.41,2.42.32ZM287.05,77l-.27-2.41,2.43-.26.24,2.42Zm36.16-.39-2.4-.2L321,74c.82.06,1.63.13,2.44.21Zm-27.74-.35-.16-2.43,2.45-.14.12,2.43ZM314.78,76c-.8,0-1.6-.06-2.41-.09l.07-2.42,2.45.08Zm-10.87-.14,0-2.43,2.45,0v2.42Z" transform="translate(-27.38 -36.12)"/><path class="cls-23" d="M309.13,338.7l0-1.21,1.22,0,0,1.22Zm-18.36-.85-1.21-.13.14-1.21,1.2.13Zm37.9-.67-.17-1.2,1.2-.18.19,1.2Zm-57.2-2.69-1.19-.29.3-1.18,1.18.29Zm76.38-1.37-.34-1.17,1.18-.33.34,1.16Zm-95.06-4.53-1.14-.46.46-1.12,1.12.44Zm113.51-2.08-.49-1.11,1.12-.49.49,1.11Zm-131.21-6.34-1.06-.6.61-1.06,1.05.6Zm148.57-2.75-.63-1,1-.64.65,1Zm-164.89-8.09-1-.75.75-1,1,.75Zm180.78-3.41-.79-.93.93-.79.79.92Zm-195.31-9.73-.84-.9.89-.82.83.88Zm209.28-4-.92-.8c.27-.3.53-.61.79-.92l.93.79ZM191.91,280.94l-.68-1,1-.68.68,1Zm233.24-4.57-1-.64c.22-.34.43-.69.64-1l1,.63C425.58,275.68,425.37,276,425.15,276.37ZM182.23,263.89l-.51-1.11,1.11-.5c.16.37.33.74.5,1.1Zm251.8-5-1.12-.45.45-1.13,1.13.44C434.34,258.12,434.19,258.5,434,258.88ZM175.59,245.44l-.3-1.18,1.17-.3.3,1.18Zm264.17-5.31-1.19-.25c.09-.4.17-.79.25-1.19l1.19.23C439.93,239.33,439.85,239.73,439.76,240.13Zm-267.43-14-.09-1.23,1.21-.08.09,1.21Zm269.72-5.46-1.22,0c0-.41,0-.81,0-1.22l1.21,0C442.07,219.83,442.06,220.24,442.05,220.65Zm-268.23-14-1.21-.13c0-.4.09-.81.14-1.22l1.21.15C173.91,205.82,173.86,206.22,173.82,206.62Zm265.75-5.35c-.07-.4-.13-.8-.2-1.2l1.2-.2c.07.4.13.8.2,1.21Zm-262-13.67-1.17-.34c.11-.4.23-.79.35-1.18l1.16.35C177.82,186.82,177.71,187.21,177.6,187.6Zm257.26-5.15,0-.12c-.13-.38-.27-.77-.41-1.15l1.15-.41c.13.39.27.77.4,1.16l.05.12ZM184.63,169.51l-1.09-.53.55-1.1,1.08.55Zm242.28-4.9-.6-1.06,1.06-.6L428,164ZM194.63,152.89l-1-.72.72-1,1,.71Zm221.5-4.42-.76-.95.94-.76.77,1ZM207.21,138.11l-.85-.86c.28-.29.57-.57.87-.86l.85.87Zm195.67-3.83-.9-.82.81-.9.91.82ZM222,125.46l-.72-1,1-.72.71,1Zm165.67-3.2-1-.68.67-1,1,.68Zm-149.24-7.17L237.8,114l1.09-.57.56,1.07Zm132.4-2.52-1.1-.52.52-1.1,1.11.53ZM256.1,107.13l-.42-1.14,1.15-.42.41,1.14Zm96.65-1.82-1.15-.37.36-1.16,1.17.37Zm-78-3.67-.27-1.18,1.2-.26.26,1.18Zm59.17-1.1-1.2-.21.21-1.2,1.2.22Zm-40-1.85-.11-1.21,1.23-.1.09,1.21Zm20.65-.38-1.21-.06.05-1.21,1.22.06Z" transform="translate(-27.38 -36.12)"/><rect class="cls-5" x="176.59" width="206.89" height="365.42" rx="25.76"/><rect class="cls-24" x="180.76" y="4.16" width="198.56" height="357.1" rx="23.09"/><path class="cls-9" d="M322.13,51.11H292.71a1.65,1.65,0,0,1-1.64-1.65h0a1.65,1.65,0,0,1,1.64-1.64h29.42a1.64,1.64,0,0,1,1.64,1.64h0A1.64,1.64,0,0,1,322.13,51.11Z" transform="translate(-27.38 -36.12)"/><path class="cls-25" d="M260.18,94V90.32L257.33,85h2.33l.92,2.17c.28.66.47,1.14.7,1.72h0c.2-.56.42-1.08.68-1.72l.91-2.17h2.29l-3,5.26V94Z" transform="translate(-27.38 -36.12)"/><path class="cls-25" d="M273.77,89.42c0,3-1.79,4.74-4.42,4.74s-4.24-2-4.24-4.58,1.73-4.72,4.39-4.72S273.77,86.93,273.77,89.42Zm-6.51.12c0,1.76.83,3,2.2,3s2.16-1.31,2.16-3.06-.77-3-2.18-3S267.26,87.79,267.26,89.54Z" transform="translate(-27.38 -36.12)"/><path class="cls-25" d="M277.14,85v5.19c0,1.55.59,2.34,1.63,2.34s1.66-.75,1.66-2.34V85h2v5.06c0,2.78-1.4,4.1-3.75,4.1S275.1,92.9,275.1,90V85Z" transform="translate(-27.38 -36.12)"/><path class="cls-25" d="M284.23,85.12a18.93,18.93,0,0,1,2.71-.18,4.61,4.61,0,0,1,2.92.71,2.27,2.27,0,0,1,.82,1.88,2.38,2.38,0,0,1-1.59,2.22v0a2.28,2.28,0,0,1,1.21,1.68c.28,1,.56,2.2.73,2.54H289a11.11,11.11,0,0,1-.63-2.1c-.24-1.12-.63-1.43-1.46-1.44h-.61V94h-2Zm2,3.88h.8c1,0,1.62-.51,1.62-1.3s-.57-1.24-1.5-1.25a6,6,0,0,0-.92.06Z" transform="translate(-27.38 -36.12)"/><path class="cls-25" d="M296.07,86.72h-2.42V85h6.93v1.72h-2.46V94h-2.05Z" transform="translate(-27.38 -36.12)"/><path class="cls-25" d="M307,90.2H303.7v2.14h3.71V94h-5.75V85h5.56v1.68H303.7v1.87H307Z" transform="translate(-27.38 -36.12)"/><path class="cls-25" d="M313.54,94l-.81-1.63c-.34-.63-.55-1.09-.8-1.61h0c-.19.52-.41,1-.7,1.61L310.46,94h-2.33l2.61-4.55L308.22,85h2.34l.79,1.65c.27.55.47,1,.68,1.5h0c.21-.58.39-1,.61-1.5l.77-1.65h2.32l-2.54,4.4L315.9,94Z" transform="translate(-27.38 -36.12)"/><path class="cls-25" d="M318.81,86.72h-2.42V85h6.92v1.72h-2.45V94h-2.05Z" transform="translate(-27.38 -36.12)"/><path class="cls-25" d="M329.14,85v3.47h3.36V85h2v9h-2V90.24h-3.36V94h-2V85Z" transform="translate(-27.38 -36.12)"/><path class="cls-25" d="M341.67,90.2h-3.32v2.14h3.71V94h-5.75V85h5.56v1.68h-3.52v1.87h3.32Z" transform="translate(-27.38 -36.12)"/><path class="cls-25" d="M343.45,85.12a18.93,18.93,0,0,1,2.71-.18,4.56,4.56,0,0,1,2.91.71,2.25,2.25,0,0,1,.83,1.88,2.38,2.38,0,0,1-1.59,2.22v0a2.28,2.28,0,0,1,1.21,1.68c.28,1,.56,2.2.73,2.54h-2.08a11.11,11.11,0,0,1-.63-2.1c-.24-1.12-.63-1.43-1.46-1.44h-.61V94h-2Zm2,3.88h.8c1,0,1.62-.51,1.62-1.3s-.57-1.24-1.5-1.25a6,6,0,0,0-.92.06Z" transform="translate(-27.38 -36.12)"/><path class="cls-25" d="M356.73,90.2h-3.31v2.14h3.7V94h-5.75V85h5.56v1.68h-3.51v1.87h3.31Z" transform="translate(-27.38 -36.12)"/><path class="cls-25" d="M282.54,102.62c0-.83-.1-1.82-.09-2.56h0c-.21.69-.45,1.43-.75,2.25l-1.05,2.87h-.58l-.95-2.82c-.29-.83-.52-1.6-.69-2.3h0c0,.74-.06,1.73-.11,2.62l-.16,2.54h-.73l.41-5.93h1l1,2.87c.25.73.45,1.38.6,2h0c.15-.59.36-1.24.63-2l1-2.87h1l.37,5.93h-.75Z" transform="translate(-27.38 -36.12)"/><path class="cls-25" d="M289.68,102.19c0,2-1.24,3.12-2.75,3.12a2.71,2.71,0,0,1-2.67-3A2.81,2.81,0,0,1,287,99.2,2.7,2.7,0,0,1,289.68,102.19Zm-4.6.1c0,1.27.69,2.4,1.89,2.4s1.9-1.12,1.9-2.46c0-1.18-.62-2.41-1.89-2.41S285.08,101,285.08,102.29Z" transform="translate(-27.38 -36.12)"/><path class="cls-25" d="M290.67,99.37a7.43,7.43,0,0,1,1.4-.12,2.43,2.43,0,0,1,1.62.43,1.25,1.25,0,0,1,.5,1,1.41,1.41,0,0,1-1,1.3h0a1.53,1.53,0,0,1,1.23,1.49,1.64,1.64,0,0,1-.5,1.19,3,3,0,0,1-2.05.55,10.06,10.06,0,0,1-1.19-.07Zm.77,2.43h.69c.81,0,1.28-.42,1.28-1s-.52-1-1.3-1a3,3,0,0,0-.67,0Zm0,2.84a5,5,0,0,0,.64,0c.79,0,1.52-.29,1.52-1.15s-.7-1.14-1.53-1.14h-.63Z" transform="translate(-27.38 -36.12)"/><path class="cls-25" d="M296.2,99.29v5.93h-.77V99.29Z" transform="translate(-27.38 -36.12)"/><path class="cls-25" d="M297.53,99.29h.77v5.29h2.53v.64h-3.3Z" transform="translate(-27.38 -36.12)"/><path class="cls-25" d="M304.75,102.44h-2.3v2.14H305v.64h-3.33V99.29h3.2v.64h-2.43v1.88h2.3Z" transform="translate(-27.38 -36.12)"/><path class="cls-25" d="M307.87,99.37a7.43,7.43,0,0,1,1.4-.12,2.43,2.43,0,0,1,1.62.43,1.24,1.24,0,0,1,.49,1,1.4,1.4,0,0,1-1,1.3h0a1.52,1.52,0,0,1,1.22,1.49,1.6,1.6,0,0,1-.5,1.19,3,3,0,0,1-2,.55,9.91,9.91,0,0,1-1.19-.07Zm.76,2.43h.7c.81,0,1.28-.42,1.28-1s-.53-1-1.3-1a3.18,3.18,0,0,0-.68,0Zm0,2.84a5.32,5.32,0,0,0,.65,0c.79,0,1.52-.29,1.52-1.15s-.7-1.14-1.53-1.14h-.64Z" transform="translate(-27.38 -36.12)"/><path class="cls-25" d="M313.59,103.35l-.61,1.87h-.8l2-5.93h.92l2,5.93h-.82l-.63-1.87Zm1.94-.59-.58-1.71c-.13-.39-.22-.74-.3-1.08h0c-.09.35-.19.71-.3,1.07l-.58,1.72Z" transform="translate(-27.38 -36.12)"/><path class="cls-25" d="M318,105.22V99.29h.84l1.89,3a16.75,16.75,0,0,1,1.07,1.92h0c-.07-.8-.08-1.52-.08-2.44V99.29h.72v5.93h-.78l-1.88-3a17.1,17.1,0,0,1-1.1-2h0c0,.75.06,1.46.06,2.45v2.53Z" transform="translate(-27.38 -36.12)"/><path class="cls-25" d="M323.79,105.22V99.29h.84l1.9,3a16.57,16.57,0,0,1,1.06,1.92h0c-.07-.8-.09-1.52-.09-2.44V99.29h.72v5.93h-.77l-1.88-3a17.22,17.22,0,0,1-1.11-2h0c.05.75.06,1.46.06,2.45v2.53Z" transform="translate(-27.38 -36.12)"/><path class="cls-25" d="M332.64,102.44h-2.3v2.14h2.57v.64h-3.33V99.29h3.2v.64h-2.44v1.88h2.3Z" transform="translate(-27.38 -36.12)"/><path class="cls-25" d="M333.9,99.37a7.94,7.94,0,0,1,1.47-.12,2.43,2.43,0,0,1,1.71.48,1.49,1.49,0,0,1,.47,1.13,1.55,1.55,0,0,1-1.12,1.51v0a1.46,1.46,0,0,1,.87,1.19,9.33,9.33,0,0,0,.46,1.63H337a7.65,7.65,0,0,1-.4-1.42c-.17-.82-.49-1.12-1.18-1.15h-.73v2.57h-.76Zm.76,2.7h.79c.81,0,1.33-.45,1.33-1.12s-.55-1.1-1.36-1.11a3,3,0,0,0-.76.07Z" transform="translate(-27.38 -36.12)"/><circle class="cls-5" cx="169.34" cy="27.41" r="1.7"/><circle class="cls-26" cx="163.16" cy="27.41" r="1.7"/><circle class="cls-27" cx="156.98" cy="27.41" r="1.7"/><circle class="cls-28" cx="150.8" cy="27.41" r="1.7"/><circle class="cls-29" cx="144.62" cy="27.41" r="1.7"/><circle class="cls-5" cx="169.34" cy="60.81" r="1.7"/><circle class="cls-26" cx="163.16" cy="60.81" r="1.7"/><circle class="cls-27" cx="156.98" cy="60.81" r="1.7"/><circle class="cls-28" cx="150.8" cy="60.81" r="1.7"/><circle class="cls-29" cx="144.62" cy="60.81" r="1.7"/><path class="cls-5" d="M416.86,420.35a1.7,1.7,0,1,1,1.7,1.7A1.7,1.7,0,0,1,416.86,420.35Z" transform="translate(-27.38 -36.12)"/><path class="cls-26" d="M423,420.35a1.7,1.7,0,1,1,1.7,1.7A1.7,1.7,0,0,1,423,420.35Z" transform="translate(-27.38 -36.12)"/><path class="cls-27" d="M429.22,420.35a1.7,1.7,0,1,1,1.7,1.7A1.7,1.7,0,0,1,429.22,420.35Z" transform="translate(-27.38 -36.12)"/><path class="cls-28" d="M435.4,420.35a1.7,1.7,0,1,1,1.7,1.7A1.7,1.7,0,0,1,435.4,420.35Z" transform="translate(-27.38 -36.12)"/><path class="cls-29" d="M441.57,420.35a1.7,1.7,0,1,1,1.7,1.7A1.7,1.7,0,0,1,441.57,420.35Z" transform="translate(-27.38 -36.12)"/><circle class="cls-5" cx="391.18" cy="350.82" r="1.7"/><circle class="cls-26" cx="397.35" cy="350.82" r="1.7"/><circle class="cls-27" cx="403.53" cy="350.82" r="1.7"/><circle class="cls-28" cx="409.71" cy="350.82" r="1.7"/><circle class="cls-29" cx="415.89" cy="350.82" r="1.7"/><g class="cls-30"><path class="cls-31" d="M293.73,285.41l1.17-.15a4.1,4.1,0,0,1,.41-.26l90.52-52.27c2.33-1.35,6.42-1.18,9.12.38l52.81,30.49a5.56,5.56,0,0,1,1.61,1.35l.62-.18v1.83h0a2.71,2.71,0,0,1-1.58,2.27l-90.52,52.26c-2.33,1.35-6.42,1.18-9.12-.38L296,290.26c-1.51-.87-2.26-2-2.23-3h0Z" transform="translate(-27.38 -36.12)"/><path class="cls-32" d="M357.89,319.3,448.41,267c2.34-1.35,2-3.71-.65-5.27L395,231.28c-2.7-1.56-6.79-1.73-9.12-.38l-90.52,52.26c-2.34,1.35-2.05,3.71.65,5.27l52.81,30.49C351.47,320.48,355.56,320.65,357.89,319.3Z" transform="translate(-27.38 -36.12)"/><path class="cls-25" d="M418.86,272.76,430,266.3c1-.6.91-1.64-.29-2.34h0a4.51,4.51,0,0,0-4.05-.17l-11.18,6.46c-1,.6-.91,1.65.29,2.34h0A4.53,4.53,0,0,0,418.86,272.76Z" transform="translate(-27.38 -36.12)"/><path class="cls-25" d="M398.24,284.66l11.17-6.45c1-.6.91-1.65-.29-2.34h0a4.53,4.53,0,0,0-4.06-.17l-11.17,6.45c-1,.6-.91,1.65.29,2.35h0A4.52,4.52,0,0,0,398.24,284.66Z" transform="translate(-27.38 -36.12)"/><path class="cls-25" d="M377.61,296.57l11.18-6.45c1-.6.91-1.65-.29-2.34h0a4.5,4.5,0,0,0-4.06-.17l-11.18,6.45c-1,.6-.9,1.65.3,2.34h0A4.51,4.51,0,0,0,377.61,296.57Z" transform="translate(-27.38 -36.12)"/><path class="cls-25" d="M357,308.48,368.17,302c1-.6.9-1.64-.3-2.34h0a4.51,4.51,0,0,0-4.05-.17L352.64,306c-1,.6-.91,1.65.29,2.34h0A4.53,4.53,0,0,0,357,308.48Z" transform="translate(-27.38 -36.12)"/></g><path class="cls-33" d="M293.73,264.85l1.17-.16a4.1,4.1,0,0,1,.41-.26l90.52-52.26c2.33-1.35,6.42-1.18,9.12.38L447.76,243a5.56,5.56,0,0,1,1.61,1.35l.62-.18V246h0a2.71,2.71,0,0,1-1.58,2.27l-90.52,52.26c-2.33,1.35-6.42,1.18-9.12-.38L296,269.7c-1.51-.87-2.26-2-2.23-3.05h0Z" transform="translate(-27.38 -36.12)"/><path class="cls-32" d="M357.89,298.73l90.52-52.26c2.34-1.35,2-3.71-.65-5.27L395,210.71c-2.7-1.56-6.79-1.73-9.12-.37L295.31,262.6c-2.34,1.35-2.05,3.7.65,5.26l52.81,30.49C351.47,299.91,355.56,300.08,357.89,298.73Z" transform="translate(-27.38 -36.12)"/><path class="cls-34" d="M357.89,298.73l90.52-52.26c2.34-1.35,2-3.71-.65-5.27L395,210.71c-2.7-1.56-6.79-1.73-9.12-.37L295.31,262.6c-2.34,1.35-2.05,3.7.65,5.26l52.81,30.49C351.47,299.91,355.56,300.08,357.89,298.73Z" transform="translate(-27.38 -36.12)"/><polygon class="cls-35" points="315.9 259.07 414.89 201.91 404.38 195.85 305.4 253 315.9 259.07"/><path class="cls-25" d="M448.41,245.34l-90.52,52.27c-2.33,1.35-6.42,1.18-9.12-.38L296,266.74a4.28,4.28,0,0,1-2.15-2.41c-.32,1.19.41,2.53,2.15,3.53l52.81,30.49c2.7,1.56,6.79,1.73,9.12.38l90.52-52.26a2.52,2.52,0,0,0,1.5-2.86A3,3,0,0,1,448.41,245.34Z" transform="translate(-27.38 -36.12)"/><polygon class="cls-25" points="317.46 233.87 347.27 216.66 339.99 212.46 310.19 229.67 317.46 233.87"/><g class="cls-30"><path class="cls-36" d="M175,259l.09,8.19h0a.31.31,0,0,0,.19.3l89.4,50.4a1.26,1.26,0,0,0,1.13-.05l14.45-8.54a.5.5,0,0,0,.26-.33h0s0,0,0,0l-.09-8.27-7,4.08L191,258.22a1.26,1.26,0,0,0-1.13.06l-5,2.93Z" transform="translate(-27.38 -36.12)"/><path class="cls-37" d="M190.89,250l89.4,50.41c.29.16.25.45-.08.65l-14.44,8.54a1.26,1.26,0,0,1-1.13.06l-89.4-50.4c-.3-.17-.26-.46.07-.66l14.44-8.54A1.31,1.31,0,0,1,190.89,250Z" transform="translate(-27.38 -36.12)"/></g><g class="cls-14"><path class="cls-31" d="M269.6,200.67c-.83-9.68-8.63-20.86-17.42-25-4.4-2.06-8.22-2-10.83-.14h0l-2.72,1.93h.84c-1.36,2-2,4.79-1.71,8.26.83,9.68,8.63,20.86,17.42,25a12.82,12.82,0,0,0,8,1.33v.78l2.76-2,0,0,.11-.08h0C268.65,208.93,270,205.42,269.6,200.67Z" transform="translate(-27.38 -36.12)"/><path class="cls-32" d="M266.84,202.61c.83,9.67-5.62,14.18-14.42,10s-16.58-15.3-17.41-25,5.63-14.18,14.42-10.06S266,192.94,266.84,202.61Z" transform="translate(-27.38 -36.12)"/><path class="cls-38" d="M257.67,212.22a13.11,13.11,0,0,1-5.51-1.38c-7.83-3.67-14.8-13.66-15.53-22.27-.36-4.22.8-7.5,3.28-9.22s6-1.69,9.78.11c7.83,3.67,14.8,13.66,15.54,22.27h0c.36,4.22-.81,7.5-3.28,9.22A7.35,7.35,0,0,1,257.67,212.22Zm-13.48-33.7a6.91,6.91,0,0,0-4,1.18c-2.35,1.64-3.45,4.77-3.1,8.83.73,8.47,7.58,18.31,15.28,21.92,3.69,1.73,7,1.78,9.36.14s3.44-4.76,3.09-8.82h0c-.72-8.48-7.58-18.31-15.28-21.92A12.69,12.69,0,0,0,244.19,178.52Z" transform="translate(-27.38 -36.12)"/></g><path class="cls-33" d="M248.39,167.14c9.41-2.36,19.21-11.83,21.88-21.17,1.34-4.67.63-8.43-1.59-10.71h0l-2.33-2.39.13.83c-2.17-1-5-1.21-8.43-.36-9.42,2.35-19.22,11.83-21.88,21.16a12.83,12.83,0,0,0,0,8.15l-.77.12,2.37,2.42,0,0,.1.1h0C240.08,167.52,243.75,168.3,248.39,167.14Z" transform="translate(-27.38 -36.12)"/><ellipse class="cls-39" cx="250.86" cy="147.83" rx="21.53" ry="12.43" transform="translate(-59.61 179.85) rotate(-44.04)"/><path class="cls-25" d="M243,163.47a8.06,8.06,0,0,1-6-2.25c-2.1-2.17-2.61-5.61-1.45-9.68,2.38-8.31,11.14-16.78,19.52-18.88,4.11-1,7.53-.4,9.63,1.77s2.61,5.61,1.45,9.68c-2.38,8.31-11.14,16.78-19.52,18.88h0A15.19,15.19,0,0,1,243,163.47Zm15.72-30.85a14.76,14.76,0,0,0-3.53.46c-8.25,2.07-16.87,10.4-19.21,18.58-1.12,3.92-.64,7.21,1.35,9.26s5.25,2.64,9.2,1.65c8.25-2.07,16.87-10.4,19.21-18.58,1.12-3.91.64-7.2-1.34-9.25A7.61,7.61,0,0,0,258.72,132.62Z" transform="translate(-27.38 -36.12)"/><path class="cls-40" d="M174.93,251l.09,8.19h0a.31.31,0,0,0,.19.3l89.4,50.4a1.23,1.23,0,0,0,1.13-.06l14.45-8.53a.5.5,0,0,0,.26-.33h0v0l-.1-8.27-7,4.08-82.5-46.51a1.26,1.26,0,0,0-1.13.06l-5,2.93Z" transform="translate(-27.38 -36.12)"/><path class="cls-41" d="M174.93,251l.09,8.19h0a.31.31,0,0,0,.19.3l89.4,50.4a1.23,1.23,0,0,0,1.13-.06l14.45-8.53a.5.5,0,0,0,.26-.33h0v0l-.1-8.27-7,4.08-82.5-46.51a1.26,1.26,0,0,0-1.13.06l-5,2.93Z" transform="translate(-27.38 -36.12)"/><path class="cls-42" d="M190.78,242l89.4,50.41c.29.16.26.45-.08.65l-14.44,8.54a1.29,1.29,0,0,1-1.13.06l-89.4-50.41c-.29-.16-.26-.45.07-.65l14.45-8.54A1.29,1.29,0,0,1,190.78,242Z" transform="translate(-27.38 -36.12)"/><path class="cls-25" d="M280.18,292.42l-.25-.14-14.27,8.43a1.26,1.26,0,0,1-1.13.06l-89.15-50.26-.18.1c-.33.2-.36.49-.07.65l89.4,50.41a1.29,1.29,0,0,0,1.13-.06l14.44-8.54C280.44,292.87,280.47,292.58,280.18,292.42Z" transform="translate(-27.38 -36.12)"/><path class="cls-43" d="M194.09,254.3l70.24,38.87a48.21,48.21,0,0,1,2.33-8.37l-70.12-39.54A47.65,47.65,0,0,0,194.09,254.3Z" transform="translate(-27.38 -36.12)"/><path class="cls-44" d="M187.73,246.76,272,294.29c.2.11.17.31,0,.44l-3.63,2.15a.88.88,0,0,1-.77,0l-84.3-47.53c-.2-.11-.18-.31.05-.44L187,246.8A.87.87,0,0,1,187.73,246.76Z" transform="translate(-27.38 -36.12)"/><path class="cls-45" d="M183.28,249.39l1.71,1,2-1.16a.88.88,0,0,1,.77,0l82.59,46.56,1.67-1c.22-.13.25-.33,0-.44l-84.3-47.53a.87.87,0,0,0-.77,0L183.33,249C183.1,249.08,183.08,249.28,183.28,249.39Z" transform="translate(-27.38 -36.12)"/><path class="cls-46" d="M398.69,162.21l-70.13-39.54h0c.12,12.51-8.5,27.81-19.27,34.18l-95.81,56.63c-12.66,7.48-22.8,25.47-22.65,40.17h0L261,293.19h0c-.15-14.7,10-32.69,22.65-40.17l95.81-56.63c10.77-6.37,19.39-21.67,19.27-34.18Z" transform="translate(-27.38 -36.12)"/><path class="cls-47" d="M398.69,162.21l-70.13-39.54h0c.12,12.51-8.5,27.81-19.27,34.18l-95.81,56.63c-12.66,7.48-22.8,25.47-22.65,40.17h0L261,293.19h0c-.15-14.7,10-32.69,22.65-40.17l95.81-56.63c10.77-6.37,19.39-21.67,19.27-34.18Z" transform="translate(-27.38 -36.12)"/><path class="cls-48" d="M190.83,253.65,261,293.19c0-.64,0-1.3.05-1.95h0L190.88,251.7C190.85,252.36,190.83,253,190.83,253.65Z" transform="translate(-27.38 -36.12)"/><polygon class="cls-25" points="278.97 176.01 292.79 183.81 291.47 184.58 277.65 176.79 278.97 176.01"/><polygon class="cls-25" points="271.89 172.02 276.86 174.82 275.54 175.6 270.57 172.8 271.89 172.02"/><polygon class="cls-25" points="266.39 168.92 269.78 170.83 268.46 171.61 265.08 169.7 266.39 168.92"/><polygon class="cls-25" points="288.27 177.78 295.8 182.03 294.48 182.81 286.95 178.56 288.27 177.78"/><polygon class="cls-25" points="276.93 171.39 286.16 176.59 284.84 177.37 275.62 172.17 276.93 171.39"/><polygon class="cls-25" points="271.44 168.29 274.82 170.2 273.5 170.98 270.13 169.07 271.44 168.29"/><polygon class="cls-25" points="266.22 165.35 269.6 167.25 268.28 168.03 264.9 166.13 266.22 165.35"/><polygon class="cls-25" points="293.36 177.18 298.81 180.25 297.49 181.03 292.05 177.95 293.36 177.18"/><polygon class="cls-25" points="289.39 174.94 291.25 175.99 289.94 176.76 288.07 175.71 289.39 174.94"/><polygon class="cls-25" points="283.9 171.84 287.28 173.75 285.96 174.52 282.58 172.62 283.9 171.84"/><polygon class="cls-25" points="281.71 167.13 301.82 178.47 300.5 179.25 280.4 167.91 281.71 167.13"/><polygon class="cls-25" points="274.63 163.14 279.6 165.94 278.29 166.72 273.31 163.91 274.63 163.14"/><polygon class="cls-25" points="299.38 173.62 304.83 176.69 303.51 177.47 298.07 174.4 299.38 173.62"/><polygon class="cls-25" points="286.6 166.41 297.27 172.43 295.96 173.21 285.28 167.19 286.6 166.41"/><polygon class="cls-25" points="281.11 163.31 284.49 165.22 283.17 166 279.79 164.09 281.11 163.31"/><polygon class="cls-25" points="296.7 168.63 307.84 174.91 306.52 175.69 295.38 169.4 296.7 168.63"/><polygon class="cls-25" points="286.52 162.89 294.58 167.44 293.27 168.21 285.21 163.67 286.52 162.89"/><polygon class="cls-25" points="278.97 158.63 284.41 161.7 283.1 162.48 277.65 159.41 278.97 158.63"/><polygon class="cls-25" points="307.09 171.01 310.85 173.13 309.54 173.91 305.77 171.79 307.09 171.01"/><polygon class="cls-25" points="300 167.01 304.98 169.82 303.66 170.6 298.68 167.79 300 167.01"/><polygon class="cls-25" points="289.88 161.3 297.89 165.82 296.57 166.6 288.56 162.08 289.88 161.3"/><polygon class="cls-25" points="302.33 164.85 313.86 171.35 312.55 172.13 301.01 165.63 302.33 164.85"/><polygon class="cls-25" points="289.42 157.57 300.22 163.66 298.9 164.44 288.1 158.35 289.42 157.57"/><polygon class="cls-25" points="283.92 154.47 287.31 156.38 285.99 157.16 282.61 155.25 283.92 154.47"/><polygon class="cls-25" points="278.65 151.5 282.03 153.41 280.72 154.18 277.34 152.28 278.65 151.5"/><polygon class="cls-25" points="309.96 165.68 316.87 169.57 315.56 170.35 308.65 166.45 309.96 165.68"/><polygon class="cls-25" points="250.94 160.21 241.36 154.81 240.05 155.59 249.63 160.99 250.94 160.21"/><polygon class="cls-25" points="251.9 157.28 244.37 153.03 243.06 153.81 250.59 158.06 251.9 157.28"/><polygon class="cls-25" points="252.83 154.32 247.38 151.25 246.07 152.03 251.51 155.1 252.83 154.32"/><polygon class="cls-25" points="258.32 153.94 250.39 149.47 249.08 150.25 257 154.72 258.32 153.94"/><polygon class="cls-25" points="258.85 150.76 253.41 147.69 252.09 148.47 257.53 151.54 258.85 150.76"/><polygon class="cls-25" points="263.32 149.81 256.42 145.91 255.1 146.69 262.01 150.59 263.32 149.81"/><polygon class="cls-25" points="263.19 146.26 259.43 144.13 258.11 144.91 261.87 147.04 263.19 146.26"/><polygon class="cls-25" points="269.73 146.47 262.44 142.36 261.12 143.13 268.41 147.25 269.73 146.47"/><polygon class="cls-25" points="272.36 144.47 265.45 140.58 264.13 141.36 271.04 145.25 272.36 144.47"/><polygon class="cls-25" points="304.92 162.83 307.85 164.49 306.54 165.26 303.6 163.61 304.92 162.83"/><polygon class="cls-25" points="296.19 157.91 302.8 161.64 301.49 162.42 294.87 158.69 296.19 157.91"/><polygon class="cls-25" points="304.31 144.37 315.47 150.66 314.16 151.44 303 145.15 304.31 144.37"/><polygon class="cls-25" points="296.67 140.06 301.06 142.54 299.75 143.32 295.35 140.84 296.67 140.06"/><polygon class="cls-25" points="249.93 193.18 263.75 200.97 262.43 201.75 248.61 193.96 249.93 193.18"/><polygon class="cls-25" points="242.84 189.19 247.82 191.99 246.5 192.77 241.53 189.97 242.84 189.19"/><polygon class="cls-25" points="237.35 186.09 240.73 188 239.42 188.77 236.04 186.87 237.35 186.09"/><polygon class="cls-25" points="259.23 194.95 266.76 199.19 265.44 199.97 257.91 195.73 259.23 194.95"/><polygon class="cls-25" points="247.89 188.56 257.12 193.76 255.8 194.54 246.57 189.33 247.89 188.56"/><polygon class="cls-25" points="242.4 185.46 245.78 187.37 244.46 188.14 241.08 186.24 242.4 185.46"/><polygon class="cls-25" points="237.18 182.51 240.56 184.42 239.24 185.2 235.86 183.29 237.18 182.51"/><polygon class="cls-25" points="264.32 194.34 269.77 197.41 268.45 198.19 263 195.12 264.32 194.34"/><polygon class="cls-25" points="260.35 192.1 262.21 193.15 260.89 193.93 259.03 192.88 260.35 192.1"/><polygon class="cls-25" points="254.86 189 258.24 190.91 256.92 191.69 253.54 189.78 254.86 189"/><polygon class="cls-25" points="252.67 184.3 272.78 195.63 271.46 196.41 251.36 185.08 252.67 184.3"/><polygon class="cls-25" points="245.59 180.3 250.56 183.11 249.24 183.89 244.27 181.08 245.59 180.3"/><polygon class="cls-25" points="221.9 177.38 212.32 171.98 211 172.76 220.59 178.16 221.9 177.38"/><polygon class="cls-25" points="222.86 174.44 215.33 170.2 214.01 170.98 221.54 175.22 222.86 174.44"/><polygon class="cls-25" points="223.79 171.49 218.34 168.42 217.03 169.2 222.47 172.27 223.79 171.49"/><polygon class="cls-25" points="229.28 171.11 221.35 166.64 220.03 167.42 227.96 171.88 229.28 171.11"/><g class="cls-49"><path class="cls-31" d="M365.17,177.73c0-9.7-6.81-21.51-15.22-26.37-4.21-2.43-8-2.65-10.78-1.05h0L336.29,152l.84.08a12.59,12.59,0,0,0-2.41,8.08c0,9.71,6.82,21.52,15.23,26.37a12.9,12.9,0,0,0,7.89,2l-.06.77,2.92-1.71,0,0,.12-.07h0C363.52,185.88,365.17,182.51,365.17,177.73Z" transform="translate(-27.38 -36.12)"/><ellipse class="cls-32" cx="347.04" cy="170.65" rx="12.43" ry="21.53" transform="translate(-66.21 160.27) rotate(-30)"/></g><g class="cls-50"><path class="cls-33" d="M365.17,177.73c0-9.7-6.81-21.51-15.22-26.37-4.21-2.43-8-2.65-10.78-1.05h0L336.29,152l.84.08a12.59,12.59,0,0,0-2.41,8.08c0,9.71,6.82,21.52,15.23,26.37a12.9,12.9,0,0,0,7.89,2l-.06.77,2.92-1.71,0,0,.12-.07h0C363.52,185.88,365.17,182.51,365.17,177.73Z" transform="translate(-27.38 -36.12)"/><ellipse class="cls-39" cx="347.04" cy="170.65" rx="12.43" ry="21.53" transform="translate(-66.21 160.27) rotate(-30)"/><path class="cls-25" d="M353.16,188.57a12.7,12.7,0,0,1-6.23-1.9c-7.62-4.4-13.82-15.14-13.82-23.94,0-4.31,1.46-7.53,4.12-9.06s6.18-1.2,9.92,1C354.77,159,361,169.76,361,178.56c0,4.31-1.47,7.53-4.13,9.07A7.28,7.28,0,0,1,353.16,188.57Zm-12.24-35.41a6.89,6.89,0,0,0-3.47.88c-2.52,1.46-3.91,4.54-3.91,8.69,0,8.66,6.11,19.23,13.61,23.56,3.59,2.07,7,2.41,9.47,1s3.91-4.54,3.91-8.69c0-8.66-6.1-19.23-13.6-23.56A12.34,12.34,0,0,0,340.92,153.16Z" transform="translate(-27.38 -36.12)"/></g><path class="cls-33" d="M223,262.87c0-9.71-6.81-21.51-15.22-26.37-4.21-2.43-8-2.65-10.78-1.05h0l-2.88,1.68.84.08c-1.52,1.86-2.4,4.59-2.4,8.08,0,9.71,6.81,21.52,15.22,26.37a12.82,12.82,0,0,0,7.89,2l-.06.78,2.92-1.71,0,0,.11-.07h0C221.38,271,223,267.65,223,262.87Z" transform="translate(-27.38 -36.12)"/><ellipse class="cls-39" cx="204.9" cy="255.78" rx="12.43" ry="21.53" transform="translate(-127.83 100.6) rotate(-30)"/><path class="cls-25" d="M210.79,273a12.22,12.22,0,0,1-6-1.84c-7.33-4.23-13.29-14.56-13.29-23,0-4.15,1.41-7.25,4-8.72s5.95-1.15,9.54.92c7.33,4.23,13.29,14.56,13.29,23,0,4.15-1.41,7.24-4,8.72A7,7,0,0,1,210.79,273ZM199,239a6.58,6.58,0,0,0-3.33.85c-2.42,1.4-3.75,4.37-3.75,8.35,0,8.33,5.87,18.49,13.08,22.65,3.45,2,6.68,2.32,9.11.93s3.75-4.37,3.75-8.35c0-8.33-5.87-18.49-13.08-22.65A11.76,11.76,0,0,0,199,239Z" transform="translate(-27.38 -36.12)"/><g class="cls-14"><path class="cls-31" d="M223,313.14c0-9.71-6.81-21.52-15.22-26.37-4.21-2.43-8-2.66-10.78-1.06h0l-2.88,1.69.84.07c-1.52,1.86-2.4,4.6-2.4,8.09,0,9.71,6.81,21.51,15.22,26.37a12.82,12.82,0,0,0,7.89,2l-.06.77,2.92-1.71,0,0,.11-.07h0C221.38,321.29,223,317.91,223,313.14Z" transform="translate(-27.38 -36.12)"/><ellipse class="cls-32" cx="204.9" cy="306.05" rx="12.43" ry="21.53" transform="translate(-152.96 107.34) rotate(-30)"/><path class="cls-38" d="M210.79,323.3a12.19,12.19,0,0,1-6-1.83c-7.33-4.24-13.29-14.57-13.29-23,0-4.15,1.41-7.25,4-8.73s5.95-1.15,9.54.93c7.33,4.23,13.29,14.56,13.29,23,0,4.14-1.41,7.24-4,8.72A7,7,0,0,1,210.79,323.3ZM199,289.24a6.58,6.58,0,0,0-3.33.85c-2.42,1.4-3.75,4.36-3.75,8.35,0,8.32,5.87,18.48,13.08,22.65,3.45,2,6.68,2.32,9.11.92s3.75-4.36,3.75-8.34c0-8.33-5.87-18.49-13.08-22.66A11.74,11.74,0,0,0,199,289.24Z" transform="translate(-27.38 -36.12)"/></g></g></g></svg>