<svg xmlns="http://www.w3.org/2000/svg" xmlns:xlink="http://www.w3.org/1999/xlink" viewBox="0 0 552.4 270.91"><defs><style>.cls-1{fill:none;}.cls-2{isolation:isolate;}.cls-12,.cls-3{fill:#8686f2;}.cls-10,.cls-11,.cls-4,.cls-5,.cls-6,.cls-7,.cls-8,.cls-9{opacity:0.6;}.cls-10,.cls-11,.cls-12,.cls-4,.cls-5,.cls-6,.cls-62,.cls-64,.cls-66,.cls-68,.cls-7,.cls-70,.cls-72,.cls-74,.cls-76,.cls-78,.cls-8,.cls-80,.cls-82,.cls-84,.cls-9{mix-blend-mode:lighten;}.cls-4{fill:url(#Áåçûìÿííûé_ãðàäèåíò_13);}.cls-5{fill:url(#Áåçûìÿííûé_ãðàäèåíò_13-2);}.cls-6{fill:url(#Áåçûìÿííûé_ãðàäèåíò_13-3);}.cls-7{fill:url(#Áåçûìÿííûé_ãðàäèåíò_13-4);}.cls-8{fill:url(#Áåçûìÿííûé_ãðàäèåíò_13-5);}.cls-9{fill:url(#Áåçûìÿííûé_ãðàäèåíò_13-6);}.cls-10{fill:url(#Áåçûìÿííûé_ãðàäèåíò_13-7);}.cls-11{fill:url(#Áåçûìÿííûé_ãðàäèåíò_13-8);}.cls-13{fill:url(#Áåçûìÿííûé_ãðàäèåíò_18);}.cls-14{fill:#bcbeff;}.cls-15{fill:#fff;}.cls-16{fill:#0f054c;}.cls-17,.cls-18,.cls-19,.cls-20,.cls-21,.cls-22,.cls-23,.cls-26,.cls-27,.cls-28,.cls-29,.cls-30,.cls-31{opacity:0.5;}.cls-17{fill:url(#Áåçûìÿííûé_ãðàäèåíò_254);}.cls-18{fill:url(#Áåçûìÿííûé_ãðàäèåíò_254-2);}.cls-19{fill:url(#Áåçûìÿííûé_ãðàäèåíò_254-3);}.cls-20{fill:url(#Áåçûìÿííûé_ãðàäèåíò_254-4);}.cls-21,.cls-24,.cls-37,.cls-40,.cls-41{fill:#42e8e0;}.cls-22{fill:url(#Áåçûìÿííûé_ãðàäèåíò_254-5);}.cls-23{fill:url(#Áåçûìÿííûé_ãðàäèåíò_254-6);}.cls-24{opacity:0.8;}.cls-25{fill:url(#Áåçûìÿííûé_ãðàäèåíò_18-2);}.cls-26{fill:url(#Áåçûìÿííûé_ãðàäèåíò_254-7);}.cls-27{fill:url(#Áåçûìÿííûé_ãðàäèåíò_254-8);}.cls-28{fill:url(#Áåçûìÿííûé_ãðàäèåíò_254-9);}.cls-29{fill:url(#Áåçûìÿííûé_ãðàäèåíò_254-10);}.cls-30{fill:url(#Áåçûìÿííûé_ãðàäèåíò_254-11);}.cls-31{fill:url(#Áåçûìÿííûé_ãðàäèåíò_254-12);}.cls-32,.cls-36,.cls-39{fill:#453c9e;}.cls-32{opacity:0.7;}.cls-33{fill:url(#Áåçûìÿííûé_ãðàäèåíò_3);}.cls-34{fill:#24126a;}.cls-35,.cls-39{opacity:0.51;}.cls-38{fill:url(#Áåçûìÿííûé_ãðàäèåíò_3-2);}.cls-40{opacity:0.1;}.cls-41{opacity:0.4;}.cls-42{fill:url(#Áåçûìÿííûé_ãðàäèåíò_3-3);}.cls-43{fill:url(#Áåçûìÿííûé_ãðàäèåíò_24);}.cls-44{fill:url(#Áåçûìÿííûé_ãðàäèåíò_24-2);}.cls-45{fill:url(#Áåçûìÿííûé_ãðàäèåíò_3-4);}.cls-46{fill:#2842a2;}.cls-47{fill:#adb1f2;}.cls-48{fill:#9198db;}.cls-49{fill:url(#Áåçûìÿííûé_ãðàäèåíò_3-5);}.cls-50{opacity:0.11;}.cls-51{clip-path:url(#clip-path);}.cls-52{fill:url(#Áåçûìÿííûé_ãðàäèåíò_3-6);}.cls-53{fill:url(#Áåçûìÿííûé_ãðàäèåíò_3-7);}.cls-54{fill:url(#Áåçûìÿííûé_ãðàäèåíò_3-8);}.cls-55{fill:url(#Áåçûìÿííûé_ãðàäèåíò_24-3);}.cls-56{fill:url(#Áåçûìÿííûé_ãðàäèåíò_24-4);}.cls-57{fill:url(#Áåçûìÿííûé_ãðàäèåíò_3-9);}.cls-58{fill:url(#Áåçûìÿííûé_ãðàäèåíò_3-10);}.cls-59{clip-path:url(#clip-path-2);}.cls-60{fill:url(#Áåçûìÿííûé_ãðàäèåíò_3-11);}.cls-61{fill:url(#Áåçûìÿííûé_ãðàäèåíò_3-12);}.cls-62{fill:url(#Áåçûìÿííûé_ãðàäèåíò_68);}.cls-63{fill:url(#Áåçûìÿííûé_ãðàäèåíò_43);}.cls-64{fill:url(#Áåçûìÿííûé_ãðàäèåíò_68-2);}.cls-65{fill:url(#Áåçûìÿííûé_ãðàäèåíò_43-2);}.cls-66{fill:url(#Áåçûìÿííûé_ãðàäèåíò_68-3);}.cls-67{fill:url(#Áåçûìÿííûé_ãðàäèåíò_43-3);}.cls-68{fill:url(#Áåçûìÿííûé_ãðàäèåíò_68-4);}.cls-69{fill:url(#Áåçûìÿííûé_ãðàäèåíò_43-4);}.cls-70{fill:url(#Áåçûìÿííûé_ãðàäèåíò_68-5);}.cls-71{fill:url(#Áåçûìÿííûé_ãðàäèåíò_43-5);}.cls-72{fill:url(#Áåçûìÿííûé_ãðàäèåíò_68-6);}.cls-73{fill:url(#Áåçûìÿííûé_ãðàäèåíò_43-6);}.cls-74{fill:url(#Áåçûìÿííûé_ãðàäèåíò_68-7);}.cls-75{fill:url(#Áåçûìÿííûé_ãðàäèåíò_43-7);}.cls-76{fill:url(#Áåçûìÿííûé_ãðàäèåíò_68-8);}.cls-77{fill:url(#Áåçûìÿííûé_ãðàäèåíò_43-8);}.cls-78{fill:url(#Áåçûìÿííûé_ãðàäèåíò_68-9);}.cls-79{fill:url(#Áåçûìÿííûé_ãðàäèåíò_43-9);}.cls-80{fill:url(#Áåçûìÿííûé_ãðàäèåíò_68-10);}.cls-81{fill:url(#Áåçûìÿííûé_ãðàäèåíò_43-10);}.cls-82{fill:url(#Áåçûìÿííûé_ãðàäèåíò_68-11);}.cls-83{fill:url(#Áåçûìÿííûé_ãðàäèåíò_43-11);}.cls-84{fill:url(#Áåçûìÿííûé_ãðàäèåíò_68-12);}.cls-85{fill:url(#Áåçûìÿííûé_ãðàäèåíò_43-12);}</style><linearGradient id="Áåçûìÿííûé_ãðàäèåíò_13" x1="-1799.02" y1="-665.65" x2="-1799.02" y2="-705.72" gradientTransform="matrix(0.87, 0.5, -1, 0.58, 1262, 1438.75)" gradientUnits="userSpaceOnUse"><stop offset="0" stop-color="#42e8e0"/><stop offset="0.02" stop-color="#40deda"/><stop offset="0.11" stop-color="#37adbc"/><stop offset="0.22" stop-color="#2e82a2"/><stop offset="0.32" stop-color="#285e8c"/><stop offset="0.43" stop-color="#22417a"/><stop offset="0.55" stop-color="#1e2a6c"/><stop offset="0.67" stop-color="#1a1a63"/><stop offset="0.81" stop-color="#19105d"/><stop offset="1" stop-color="#180d5b"/></linearGradient><linearGradient id="Áåçûìÿííûé_ãðàäèåíò_13-2" x1="1043.35" y1="15.53" x2="1043.35" y2="-30.74" gradientTransform="matrix(1, -0.58, 0.87, 0.5, -717.03, 749.55)" xlink:href="#Áåçûìÿííûé_ãðàäèåíò_13"/><linearGradient id="Áåçûìÿííûé_ãðàäèåíò_13-3" x1="631" y1="2811.43" x2="631" y2="2771.36" gradientTransform="matrix(-0.87, -0.5, 1, -0.58, -1925.21, 2110.99)" xlink:href="#Áåçûìÿííûé_ãðàäèåíò_13"/><linearGradient id="Áåçûìÿííûé_ãðàäèåíò_13-4" x1="-2433.73" y1="2445.56" x2="-2433.73" y2="2399.28" gradientTransform="matrix(-1, 0.58, -0.87, -0.5, 53.82, 2800.18)" xlink:href="#Áåçûìÿííûé_ãðàäèåíò_13"/><linearGradient id="Áåçûìÿííûé_ãðàäèåíò_13-5" x1="-1888.08" y1="-588.54" x2="-1888.08" y2="-628.61" xlink:href="#Áåçûìÿííûé_ãðàäèåíò_13"/><linearGradient id="Áåçûìÿííûé_ãðàäèåíò_13-6" x1="966.23" y1="-73.52" x2="966.23" y2="-119.8" gradientTransform="matrix(1, -0.58, 0.87, 0.5, -717.03, 749.55)" xlink:href="#Áåçûìÿííûé_ãðàäèåíò_13"/><linearGradient id="Áåçûìÿííûé_ãðàäèåíò_13-7" x1="720.06" y1="2734.31" x2="720.06" y2="2694.24" gradientTransform="matrix(-0.87, -0.5, 1, -0.58, -1925.21, 2110.99)" xlink:href="#Áåçûìÿííûé_ãðàäèåíò_13"/><linearGradient id="Áåçûìÿííûé_ãðàäèåíò_13-8" x1="-2356.62" y1="2534.61" x2="-2356.62" y2="2488.34" gradientTransform="matrix(-1, 0.58, -0.87, -0.5, 53.82, 2800.18)" xlink:href="#Áåçûìÿííûé_ãðàäèåíò_13"/><linearGradient id="Áåçûìÿííûé_ãðàäèåíò_18" x1="143.28" y1="171.99" x2="241.76" y2="171.99" gradientUnits="userSpaceOnUse"><stop offset="0" stop-color="#5761d7"/><stop offset="0.16" stop-color="#5e67da"/><stop offset="0.41" stop-color="#727ae2"/><stop offset="0.69" stop-color="#9297ee"/><stop offset="1" stop-color="#bcbeff"/></linearGradient><linearGradient id="Áåçûìÿííûé_ãðàäèåíò_254" x1="171.15" y1="158.68" x2="230.26" y2="158.68" gradientUnits="userSpaceOnUse"><stop offset="0" stop-color="#42e8e0"/><stop offset="0.15" stop-color="#43e3e0"/><stop offset="0.33" stop-color="#45d5df"/><stop offset="0.52" stop-color="#49bddd"/><stop offset="0.72" stop-color="#4e9cdb"/><stop offset="0.93" stop-color="#5472d8"/><stop offset="1" stop-color="#5761d7"/></linearGradient><linearGradient id="Áåçûìÿííûé_ãðàäèåíò_254-2" x1="200.7" y1="148" x2="230.26" y2="148" xlink:href="#Áåçûìÿííûé_ãðàäèåíò_254"/><linearGradient id="Áåçûìÿííûé_ãðàäèåíò_254-3" x1="171.15" y1="148" x2="200.7" y2="148" xlink:href="#Áåçûìÿííûé_ãðàäèåíò_254"/><linearGradient id="Áåçûìÿííûé_ãðàäèåíò_254-4" x1="171.15" y1="154.38" x2="230.26" y2="154.38" xlink:href="#Áåçûìÿííûé_ãðàäèåíò_254"/><linearGradient id="Áåçûìÿííûé_ãðàäèåíò_254-5" x1="200.7" y1="165.06" x2="230.26" y2="165.06" xlink:href="#Áåçûìÿííûé_ãðàäèåíò_254"/><linearGradient id="Áåçûìÿííûé_ãðàäèåíò_254-6" x1="171.15" y1="165.06" x2="200.7" y2="165.06" xlink:href="#Áåçûìÿííûé_ãðàäèåíò_254"/><linearGradient id="Áåçûìÿííûé_ãðàäèåíò_18-2" x1="297.31" y1="171.99" x2="395.79" y2="171.99" xlink:href="#Áåçûìÿííûé_ãðàäèåíò_18"/><linearGradient id="Áåçûìÿííûé_ãðàäèåíò_254-7" x1="325.18" y1="158.68" x2="384.29" y2="158.68" xlink:href="#Áåçûìÿííûé_ãðàäèåíò_254"/><linearGradient id="Áåçûìÿííûé_ãðàäèåíò_254-8" x1="354.73" y1="148" x2="384.29" y2="148" xlink:href="#Áåçûìÿííûé_ãðàäèåíò_254"/><linearGradient id="Áåçûìÿííûé_ãðàäèåíò_254-9" x1="325.18" y1="148" x2="354.73" y2="148" xlink:href="#Áåçûìÿííûé_ãðàäèåíò_254"/><linearGradient id="Áåçûìÿííûé_ãðàäèåíò_254-10" x1="325.18" y1="154.38" x2="384.29" y2="154.38" xlink:href="#Áåçûìÿííûé_ãðàäèåíò_254"/><linearGradient id="Áåçûìÿííûé_ãðàäèåíò_254-11" x1="354.73" y1="165.06" x2="384.29" y2="165.06" xlink:href="#Áåçûìÿííûé_ãðàäèåíò_254"/><linearGradient id="Áåçûìÿííûé_ãðàäèåíò_254-12" x1="325.18" y1="165.06" x2="354.73" y2="165.06" xlink:href="#Áåçûìÿííûé_ãðàäèåíò_254"/><linearGradient id="Áåçûìÿííûé_ãðàäèåíò_3" x1="311.96" y1="217.06" x2="311.96" y2="72.94" gradientUnits="userSpaceOnUse"><stop offset="0" stop-color="#c0bff6"/><stop offset="0.29" stop-color="#c5c4f7"/><stop offset="0.64" stop-color="#d3d2f9"/><stop offset="1" stop-color="#e9e9fd"/></linearGradient><linearGradient id="Áåçûìÿííûé_ãðàäèåíò_3-2" x1="311.96" y1="87.41" x2="311.96" y2="40.74" xlink:href="#Áåçûìÿííûé_ãðàäèåíò_3"/><linearGradient id="Áåçûìÿííûé_ãðàäèåíò_3-3" x1="2334.63" y1="231.86" x2="2410.93" y2="231.86" gradientTransform="translate(-2278.69)" xlink:href="#Áåçûìÿííûé_ãðàäèåíò_3"/><linearGradient id="Áåçûìÿííûé_ãðàäèåíò_24" x1="2334.63" y1="251.43" x2="2347.73" y2="251.43" gradientTransform="translate(-2278.69)" gradientUnits="userSpaceOnUse"><stop offset="0" stop-color="#5761d7"/><stop offset="0.18" stop-color="#5c66d9"/><stop offset="0.39" stop-color="#6a73df"/><stop offset="0.61" stop-color="#8289e8"/><stop offset="0.85" stop-color="#a3a7f5"/><stop offset="1" stop-color="#bcbeff"/></linearGradient><linearGradient id="Áåçûìÿííûé_ãðàäèåíò_24-2" x1="2344.85" y1="273.42" x2="2452.62" y2="273.42" xlink:href="#Áåçûìÿííûé_ãðàäèåíò_24"/><linearGradient id="Áåçûìÿííûé_ãðàäèåíò_3-4" x1="2381.06" y1="269.83" x2="2488.89" y2="269.83" gradientTransform="translate(-2278.69)" xlink:href="#Áåçûìÿííûé_ãðàäèåíò_3"/><linearGradient id="Áåçûìÿííûé_ãðàäèåíò_3-5" x1="2399.32" y1="275.95" x2="2426.92" y2="275.95" gradientTransform="translate(-2278.69)" xlink:href="#Áåçûìÿííûé_ãðàäèåíò_3"/><clipPath id="clip-path" transform="translate(-24.95 -84.56)"><polygon id="SVGID" class="cls-1" points="123.04 190.53 59.37 227.28 67.26 273.83 130.89 237.1 123.04 190.53"/></clipPath><linearGradient id="Áåçûìÿííûé_ãðàäèåíò_3-6" x1="2339.87" y1="245.93" x2="2447.69" y2="245.93" gradientTransform="translate(-2278.69)" xlink:href="#Áåçûìÿííûé_ãðàäèåíò_3"/><linearGradient id="Áåçûìÿííûé_ãðàäèåíò_3-7" x1="2332.77" y1="238.02" x2="2360.37" y2="238.02" gradientTransform="translate(-2278.69)" xlink:href="#Áåçûìÿííûé_ãðàäèåíò_3"/><linearGradient id="Áåçûìÿííûé_ãðàäèåíò_3-8" x1="88.19" y1="231.86" x2="164.49" y2="231.86" gradientTransform="matrix(-1, 0, 0, 1, 634.54, 0)" xlink:href="#Áåçûìÿííûé_ãðàäèåíò_3"/><linearGradient id="Áåçûìÿííûé_ãðàäèåíò_24-3" x1="88.19" y1="251.43" x2="101.29" y2="251.43" gradientTransform="matrix(-1, 0, 0, 1, 634.54, 0)" xlink:href="#Áåçûìÿííûé_ãðàäèåíò_24"/><linearGradient id="Áåçûìÿííûé_ãðàäèåíò_24-4" x1="98.41" y1="273.42" x2="206.18" y2="273.42" gradientTransform="matrix(-1, 0, 0, 1, 634.54, 0)" xlink:href="#Áåçûìÿííûé_ãðàäèåíò_24"/><linearGradient id="Áåçûìÿííûé_ãðàäèåíò_3-9" x1="134.62" y1="269.83" x2="242.45" y2="269.83" gradientTransform="matrix(-1, 0, 0, 1, 634.54, 0)" xlink:href="#Áåçûìÿííûé_ãðàäèåíò_3"/><linearGradient id="Áåçûìÿííûé_ãðàäèåíò_3-10" x1="152.88" y1="275.95" x2="180.48" y2="275.95" gradientTransform="matrix(-1, 0, 0, 1, 634.54, 0)" xlink:href="#Áåçûìÿííûé_ãðàäèåíò_3"/><clipPath id="clip-path-2" transform="translate(-24.95 -84.56)"><polygon id="SVGID-2" data-name="SVGID" class="cls-1" points="479.25 190.53 542.92 227.28 535.03 273.83 471.4 237.1 479.25 190.53"/></clipPath><linearGradient id="Áåçûìÿííûé_ãðàäèåíò_3-11" x1="93.43" y1="245.93" x2="201.25" y2="245.93" gradientTransform="matrix(-1, 0, 0, 1, 634.54, 0)" xlink:href="#Áåçûìÿííûé_ãðàäèåíò_3"/><linearGradient id="Áåçûìÿííûé_ãðàäèåíò_3-12" x1="86.33" y1="238.02" x2="113.93" y2="238.02" gradientTransform="matrix(-1, 0, 0, 1, 634.54, 0)" xlink:href="#Áåçûìÿííûé_ãðàäèåíò_3"/><radialGradient id="Áåçûìÿííûé_ãðàäèåíò_68" cx="482.63" cy="450.1" r="9.38" gradientTransform="matrix(0.99, -0.13, -0.13, -0.99, -244.22, 838.05)" gradientUnits="userSpaceOnUse"><stop offset="0" stop-color="#42e8e0"/><stop offset="0" stop-color="#41e5de"/><stop offset="0.06" stop-color="#39b8c3"/><stop offset="0.13" stop-color="#3190aa"/><stop offset="0.2" stop-color="#2a6c95"/><stop offset="0.27" stop-color="#254e83"/><stop offset="0.36" stop-color="#203674"/><stop offset="0.45" stop-color="#1c2469"/><stop offset="0.56" stop-color="#1a1761"/><stop offset="0.7" stop-color="#180f5c"/><stop offset="1" stop-color="#180d5b"/></radialGradient><radialGradient id="Áåçûìÿííûé_ãðàäèåíò_43" cx="482.63" cy="450.1" r="2.55" gradientTransform="matrix(0.86, -0.5, -0.5, -0.86, -11.16, 963.28)" gradientUnits="userSpaceOnUse"><stop offset="0" stop-color="#42e8e0"/><stop offset="1" stop-color="#42e8e0"/></radialGradient><radialGradient id="Áåçûìÿííûé_ãðàäèåíò_68-2" cx="536.82" cy="410.89" r="9.38" gradientTransform="matrix(0.99, -0.13, -0.13, -0.99, -236.32, 812.43)" xlink:href="#Áåçûìÿííûé_ãðàäèåíò_68"/><radialGradient id="Áåçûìÿííûé_ãðàäèåíò_43-2" cx="536.82" cy="410.89" r="2.55" xlink:href="#Áåçûìÿííûé_ãðàäèåíò_43"/><radialGradient id="Áåçûìÿííûé_ãðàäèåíò_68-3" cx="635.77" cy="353.91" r="9.38" gradientTransform="matrix(0.99, -0.13, -0.13, -0.99, -227.44, 767.52)" xlink:href="#Áåçûìÿííûé_ãðàäèåíò_68"/><radialGradient id="Áåçûìÿííûé_ãðàäèåíò_43-3" cx="635.77" cy="353.91" r="2.55" xlink:href="#Áåçûìÿííûé_ãðàäèåíò_43"/><radialGradient id="Áåçûìÿííûé_ãðàäèåíò_68-4" cx="642.74" cy="341.51" r="9.38" gradientTransform="matrix(0.86, -0.5, -0.5, -0.86, -11.16, 963.28)" xlink:href="#Áåçûìÿííûé_ãðàäèåíò_68"/><radialGradient id="Áåçûìÿííûé_ãðàäèåíò_43-4" cx="642.74" cy="341.51" r="2.55" gradientTransform="matrix(0.86, -0.5, -0.5, -0.86, -36.11, 878.72)" xlink:href="#Áåçûìÿííûé_ãðàäèåíò_43"/><radialGradient id="Áåçûìÿííûé_ãðàäèåíò_68-5" cx="710.28" cy="324.47" r="9.38" gradientTransform="matrix(1, -0.07, -0.07, -1, -245.96, 701)" xlink:href="#Áåçûìÿííûé_ãðàäèåíò_68"/><radialGradient id="Áåçûìÿííûé_ãðàäèåíò_43-5" cx="710.28" cy="324.47" r="2.55" xlink:href="#Áåçûìÿííûé_ãðàäèåíò_43"/><radialGradient id="Áåçûìÿííûé_ãðàäèåíò_68-6" cx="735.61" cy="336.5" r="9.38" gradientTransform="matrix(0.86, -0.5, -0.5, -0.86, -11.16, 963.28)" xlink:href="#Áåçûìÿííûé_ãðàäèåíò_68"/><radialGradient id="Áåçûìÿííûé_ãðàäèåíò_43-6" cx="735.61" cy="336.5" r="2.55" xlink:href="#Áåçûìÿííûé_ãðàäèåíò_43"/><radialGradient id="Áåçûìÿííûé_ãðàäèåíò_68-7" cx="727.44" cy="351.14" r="9.38" gradientTransform="matrix(0.86, -0.5, -0.5, -0.86, -11.16, 963.28)" xlink:href="#Áåçûìÿííûé_ãðàäèåíò_68"/><radialGradient id="Áåçûìÿííûé_ãðàäèåíò_43-7" cx="727.44" cy="351.14" r="2.55" xlink:href="#Áåçûìÿííûé_ãðàäèåíò_43"/><radialGradient id="Áåçûìÿííûé_ãðàäèåíò_68-8" cx="718.98" cy="365.27" r="9.38" gradientTransform="matrix(0.86, -0.5, -0.5, -0.86, -11.16, 963.28)" xlink:href="#Áåçûìÿííûé_ãðàäèåíò_68"/><radialGradient id="Áåçûìÿííûé_ãðàäèåíò_43-8" cx="718.98" cy="365.27" r="2.55" xlink:href="#Áåçûìÿííûé_ãðàäèåíò_43"/><radialGradient id="Áåçûìÿííûé_ãðàäèåíò_68-9" cx="475.99" cy="461.85" r="9.38" gradientTransform="matrix(0.86, -0.5, -0.5, -0.86, -11.16, 963.28)" xlink:href="#Áåçûìÿííûé_ãðàäèåíò_68"/><radialGradient id="Áåçûìÿííûé_ãðàäèåíò_43-9" cx="475.99" cy="461.85" r="2.55" gradientTransform="matrix(0.86, -0.5, -0.5, -0.86, -36.11, 878.72)" xlink:href="#Áåçûìÿííûé_ãðàäèåíò_43"/><radialGradient id="Áåçûìÿííûé_ãðàäèåíò_68-10" cx="469.34" cy="473.59" r="9.38" gradientTransform="matrix(0.71, 0.71, 0.71, -0.71, -511.76, 320.57)" xlink:href="#Áåçûìÿííûé_ãðàäèåíò_68"/><radialGradient id="Áåçûìÿííûé_ãðàäèåíò_43-10" cx="469.34" cy="473.59" r="2.55" xlink:href="#Áåçûìÿííûé_ãðàäèåíò_43"/><radialGradient id="Áåçûìÿííûé_ãðàäèåíò_68-11" cx="511.47" cy="489.51" r="9.38" gradientTransform="matrix(0.86, -0.5, -0.5, -0.86, -11.16, 963.28)" xlink:href="#Áåçûìÿííûé_ãðàäèåíò_68"/><radialGradient id="Áåçûìÿííûé_ãðàäèåíò_43-11" cx="511.47" cy="489.51" r="2.55" xlink:href="#Áåçûìÿííûé_ãðàäèåíò_43"/><radialGradient id="Áåçûìÿííûé_ãðàäèåíò_68-12" cx="525.54" cy="488.88" r="9.38" gradientTransform="matrix(0.86, -0.5, -0.5, -0.86, -11.16, 963.28)" xlink:href="#Áåçûìÿííûé_ãðàäèåíò_68"/><radialGradient id="Áåçûìÿííûé_ãðàäèåíò_43-12" cx="525.54" cy="488.88" r="2.55" xlink:href="#Áåçûìÿííûé_ãðàäèåíò_43"/></defs><g class="cls-2"><g id="Ñëîé_1" data-name="Ñëîé 1"><path class="cls-3" d="M388.11,353.44a5,5,0,0,1-2.49-.66l-38.39-22.17.33-.57L386,352.21a4.34,4.34,0,0,0,4.34,0l11.21-6.52,62.78-36.25a.9.9,0,0,0,.46-.8.92.92,0,0,0-.46-.8l-65.11-37.59.32-.57,65.11,37.59a1.57,1.57,0,0,1,.8,1.37,1.55,1.55,0,0,1-.8,1.37l-62.77,36.25-11.21,6.52A5,5,0,0,1,388.11,353.44Z" transform="translate(-24.95 -84.56)"/><path class="cls-3" d="M142.7,260.17l-.33-.57,45.48-26.26a5.21,5.21,0,0,1,5.18,0l21.26,12.28-.33.57L192.7,233.91a4.56,4.56,0,0,0-4.52,0Z" transform="translate(-24.95 -84.56)"/><path class="cls-3" d="M464,260.17l-45.48-26.26a4.56,4.56,0,0,0-4.52,0L392.7,246.19l-.33-.57,21.26-12.28a5.21,5.21,0,0,1,5.18,0l45.48,26.26Z" transform="translate(-24.95 -84.56)"/><polygon class="cls-4" points="424.74 140.39 394.81 123.11 354.73 146.25 384.66 163.53 424.74 140.39"/><polygon class="cls-5" points="314.66 123.11 284.73 140.39 324.8 163.53 354.73 146.25 314.66 123.11"/><polygon class="cls-6" points="284.73 186.66 314.66 203.94 354.74 180.81 324.8 163.53 284.73 186.66"/><polygon class="cls-7" points="394.81 203.94 424.74 186.66 384.66 163.53 354.74 180.81 394.81 203.94"/><polygon class="cls-8" points="270.49 140.39 240.56 123.11 200.49 146.25 230.42 163.53 270.49 140.39"/><polygon class="cls-9" points="160.42 123.11 130.49 140.39 170.56 163.53 200.49 146.25 160.42 123.11"/><polygon class="cls-10" points="130.49 186.66 160.42 203.94 200.49 180.81 170.56 163.53 130.49 186.66"/><polygon class="cls-11" points="240.56 203.94 270.5 186.66 230.42 163.53 200.49 180.81 240.56 203.94"/><path class="cls-12" d="M225.65,280.94a3.2,3.2,0,0,1-1.61-.38l-36.19-20.89a1.28,1.28,0,0,1-.72-1.09,1.64,1.64,0,0,1,1-1.34l35.69-20.61a4,4,0,0,1,3.66-.14l36.18,20.89a1.28,1.28,0,0,1,.73,1.09,1.64,1.64,0,0,1-1,1.34l-35.7,20.61A4.07,4.07,0,0,1,225.65,280.94Zm-1.33-.86a3.52,3.52,0,0,0,3.09-.14l35.7-20.61c.43-.25.69-.57.69-.86a.76.76,0,0,0-.45-.61L227.17,237a3.54,3.54,0,0,0-3.1.14l-35.7,20.61a1.17,1.17,0,0,0-.68.86.77.77,0,0,0,.44.61Z" transform="translate(-24.95 -84.56)"/><polygon class="cls-13" points="239.13 158.68 239.13 163.12 200.7 185.31 162.28 163.12 162.28 158.68 239.13 158.68"/><polygon class="cls-14" points="200.7 180.86 162.28 158.68 200.7 136.49 239.13 158.68 200.7 180.86"/><polygon class="cls-15" points="200.7 180.35 162.72 158.42 162.28 158.68 200.7 180.86 239.13 158.68 238.68 158.42 200.7 180.35"/><polygon class="cls-16" points="200.7 175.75 171.15 158.68 200.7 141.62 230.26 158.68 200.7 175.75"/><polygon class="cls-17" points="200.7 175.75 171.15 158.68 200.7 141.62 230.26 158.68 200.7 175.75"/><polygon class="cls-18" points="200.7 137.32 230.26 154.38 230.26 158.68 200.7 141.62 200.7 137.32"/><polygon class="cls-19" points="200.7 141.62 171.15 158.68 171.15 154.38 200.7 137.32 200.7 141.62"/><polygon class="cls-20" points="200.7 171.44 171.15 154.38 200.7 137.32 230.26 154.38 200.7 171.44"/><polygon class="cls-21" points="200.7 161.2 188.89 154.38 200.7 147.56 212.51 154.38 200.7 161.2"/><polygon class="cls-21" points="200.7 148.19 211.97 154.69 212.51 154.38 200.7 147.56 188.89 154.38 189.44 154.69 200.7 148.19"/><polygon class="cls-22" points="200.7 171.44 200.7 175.75 230.26 158.68 230.26 154.38 200.7 171.44"/><polygon class="cls-23" points="171.15 154.38 171.15 158.68 200.7 175.75 200.7 171.44 171.15 154.38"/><polygon class="cls-24" points="200.7 170.97 171.55 154.15 171.15 154.38 200.7 171.44 230.26 154.38 229.85 154.15 200.7 170.97"/><path class="cls-12" d="M379.68,280.94a3.2,3.2,0,0,1-1.61-.38l-36.19-20.89a1.28,1.28,0,0,1-.72-1.09,1.64,1.64,0,0,1,1-1.34l35.7-20.61a4,4,0,0,1,3.65-.14l36.19,20.89a1.29,1.29,0,0,1,.72,1.09,1.64,1.64,0,0,1-1,1.34l-35.7,20.61A4.07,4.07,0,0,1,379.68,280.94Zm-1.33-.86a3.52,3.52,0,0,0,3.09-.14l35.7-20.61c.43-.25.69-.57.69-.86a.77.77,0,0,0-.44-.61L381.2,237a3.52,3.52,0,0,0-3.09.14l-35.7,20.61c-.43.25-.69.57-.69.86a.77.77,0,0,0,.44.61Z" transform="translate(-24.95 -84.56)"/><polygon class="cls-25" points="393.16 158.68 393.16 163.12 354.74 185.31 316.31 163.12 316.31 158.68 393.16 158.68"/><polygon class="cls-14" points="354.74 180.86 316.31 158.68 354.73 136.49 393.16 158.68 354.74 180.86"/><polygon class="cls-15" points="354.74 180.35 316.76 158.42 316.31 158.68 354.74 180.86 393.16 158.68 392.71 158.42 354.74 180.35"/><polygon class="cls-16" points="354.74 175.75 325.18 158.68 354.73 141.62 384.29 158.68 354.74 175.75"/><polygon class="cls-26" points="354.74 175.75 325.18 158.68 354.73 141.62 384.29 158.68 354.74 175.75"/><polygon class="cls-27" points="354.73 137.32 384.29 154.38 384.29 158.68 354.73 141.62 354.73 137.32"/><polygon class="cls-28" points="354.74 141.62 325.18 158.68 325.18 154.38 354.73 137.32 354.74 141.62"/><polygon class="cls-29" points="354.74 171.44 325.18 154.38 354.73 137.32 384.29 154.38 354.74 171.44"/><polygon class="cls-21" points="354.74 161.2 342.92 154.38 354.73 147.56 366.55 154.38 354.74 161.2"/><polygon class="cls-21" points="354.73 148.19 366 154.69 366.55 154.38 354.73 147.56 342.92 154.38 343.47 154.69 354.73 148.19"/><polygon class="cls-30" points="354.74 171.44 354.74 175.75 384.29 158.68 384.29 154.38 354.74 171.44"/><polygon class="cls-31" points="325.18 154.38 325.18 158.68 354.74 175.75 354.74 171.44 325.18 154.38"/><polygon class="cls-24" points="354.74 170.97 325.58 154.15 325.18 154.38 354.74 171.44 384.29 154.38 383.88 154.15 354.74 170.97"/><polygon class="cls-14" points="277.81 108.32 209.52 68.89 277.81 29.46 346.11 68.89 277.81 108.32"/><polygon class="cls-32" points="277.81 104.77 215.67 68.89 277.81 33.01 339.96 68.89 277.81 104.77"/><path class="cls-3" d="M302.76,355.47a6,6,0,0,1-3-.82l-83.66-48.29a1.79,1.79,0,0,1-.89-1.56,1.76,1.76,0,0,1,.89-1.55l86.7-50.05,89.39,51.6-86.34,49.85A6,6,0,0,1,302.76,355.47ZM300,354.09a5.5,5.5,0,0,0,5.44,0l85.36-49.29L302.76,254l-86.37,49.87a1.11,1.11,0,0,0-.57,1,1.13,1.13,0,0,0,.57,1Z" transform="translate(-24.95 -84.56)"/><polygon class="cls-15" points="277.81 259.68 209.52 220.24 277.81 180.81 346.11 220.25 277.81 259.68"/><polygon class="cls-33" points="346.11 68.89 346.11 220.25 277.81 259.68 277.81 108.32 346.11 68.89"/><polygon class="cls-34" points="209.52 68.89 209.52 220.24 277.81 259.68 277.81 108.32 209.52 68.89"/><g class="cls-35"><polygon class="cls-36" points="214.14 78.93 214.14 214.97 273.19 249.06 273.19 113.02 214.14 78.93"/></g><polygon class="cls-36" points="335.86 105.46 335.86 109.46 288.06 137.06 288.06 133.06 335.86 105.46"/><polygon class="cls-36" points="335.86 122.37 335.86 126.37 288.06 153.97 288.06 149.97 335.86 122.37"/><polygon class="cls-36" points="335.86 139.29 335.86 143.29 288.06 170.89 288.06 166.89 335.86 139.29"/><polygon class="cls-36" points="335.86 156.2 335.86 160.21 288.06 187.81 288.06 183.81 335.86 156.2"/><polygon class="cls-36" points="335.86 173.12 335.86 177.12 288.06 204.72 288.06 200.72 335.86 173.12"/><polygon class="cls-36" points="335.86 190.03 335.86 194.04 288.06 221.64 288.06 217.64 335.86 190.03"/><polygon class="cls-15" points="277.81 107.04 210.63 68.25 209.52 68.89 277.81 108.32 346.11 68.89 345 68.25 277.81 107.04"/><g class="cls-35"><polygon class="cls-36" points="209.52 196.32 277.81 155.09 277.81 108.32 209.52 68.89 209.52 196.32"/></g><polygon class="cls-37" points="221.21 127.11 229.71 132.02 229.71 130.54 221.22 125.64 221.21 127.11"/><polygon class="cls-37" points="231.08 132.8 235.71 135.48 235.71 134 231.08 131.33 231.08 132.8"/><polygon class="cls-37" points="242.91 139.63 246.26 141.56 246.27 140.09 242.92 138.16 242.91 139.63"/><polygon class="cls-37" points="240.47 138.22 241.62 138.88 241.62 137.41 240.47 136.75 240.47 138.22"/><polygon class="cls-37" points="237.09 136.27 239.17 137.47 239.17 136 237.09 134.79 237.09 136.27"/><polygon class="cls-37" points="229.07 138.39 232.42 140.32 232.42 138.85 229.07 136.91 229.07 138.39"/><polygon class="cls-37" points="221.21 133.85 227.77 137.64 227.77 136.16 221.21 132.37 221.21 133.85"/><polygon class="cls-37" points="233.45 157.75 240.01 161.54 240.01 160.07 233.45 156.28 233.45 157.75"/><polygon class="cls-37" points="230.07 155.8 232.15 157 232.15 155.53 230.07 154.32 230.07 155.8"/><polygon class="cls-37" points="233.41 151 239.98 154.79 239.98 153.32 233.41 149.53 233.41 151"/><polygon class="cls-37" points="230.03 149.05 232.11 150.25 232.12 148.78 230.04 147.58 230.03 149.05"/><polygon class="cls-37" points="233.49 186.87 221.12 179.73 221.12 181.2 233.49 188.34 233.49 186.87"/><polygon class="cls-37" points="237.84 189.38 234.78 187.62 234.78 189.09 237.84 190.86 237.84 189.38"/><polygon class="cls-37" points="257.88 190.81 245.51 183.67 245.51 185.15 257.88 192.29 257.88 190.81"/><polygon class="cls-37" points="262.24 193.33 259.18 191.56 259.17 193.04 262.23 194.81 262.24 193.33"/><polygon class="cls-37" points="224.47 178.29 221.12 176.36 221.12 177.83 224.47 179.77 224.47 178.29"/><polygon class="cls-37" points="243.73 182.66 240.38 180.72 240.37 182.2 243.72 184.13 243.73 182.66"/><polygon class="cls-37" points="232.34 182.83 225.77 179.04 225.77 180.52 232.34 184.31 232.34 182.83"/><polygon class="cls-37" points="235.72 184.78 233.63 183.58 233.63 185.06 235.71 186.26 235.72 184.78"/><polygon class="cls-37" points="243.64 189.35 237.07 185.56 237.07 187.04 243.64 190.83 243.64 189.35"/><polygon class="cls-37" points="247.01 191.3 244.94 190.1 244.94 191.58 247.01 192.78 247.01 191.3"/><polygon class="cls-37" points="243.72 186.03 240.37 184.1 240.37 185.57 243.72 187.5 243.72 186.03"/><polygon class="cls-37" points="251.59 190.57 245.02 186.78 245.02 188.25 251.59 192.05 251.59 190.57"/><polygon class="cls-37" points="254.96 192.52 252.88 191.32 252.88 192.8 254.96 194 254.96 192.52"/><polygon class="cls-37" points="227.98 176.95 221.13 172.99 221.12 174.46 227.98 178.42 227.98 176.95"/><polygon class="cls-37" points="234.24 180.56 229.28 177.7 229.28 179.17 234.24 182.04 234.24 180.56"/><polygon class="cls-37" points="238.89 183.25 235.54 181.31 235.53 182.78 238.89 184.72 238.89 183.25"/><polygon class="cls-37" points="261.56 153.75 268.41 157.71 268.41 156.24 261.56 152.28 261.56 153.75"/><polygon class="cls-37" points="255.3 150.14 260.26 153 260.26 151.53 255.3 148.67 255.3 150.14"/><polygon class="cls-37" points="250.65 147.46 254 149.39 254 147.92 250.65 145.98 250.65 147.46"/><polygon class="cls-37" points="258.71 148.73 265.57 152.69 265.57 151.21 258.71 147.25 258.71 148.73"/><polygon class="cls-37" points="252.46 145.12 257.41 147.98 257.41 146.5 252.46 143.64 252.46 145.12"/><polygon class="cls-37" points="247.81 142.43 251.16 144.37 251.16 142.89 247.81 140.96 247.81 142.43"/><polygon class="cls-37" points="234.43 154.96 236.75 156.3 236.75 154.83 234.43 153.49 234.43 154.96"/><polygon class="cls-37" points="230.07 152.45 233.13 154.21 233.13 152.74 230.07 150.97 230.07 152.45"/><polygon class="cls-37" points="228.03 173.6 221.17 169.64 221.17 171.12 228.03 175.07 228.03 173.6"/><polygon class="cls-37" points="234.28 177.21 229.33 174.35 229.32 175.82 234.28 178.69 234.28 177.21"/><polygon class="cls-37" points="238.93 179.9 235.58 177.96 235.58 179.44 238.93 181.37 238.93 179.9"/><polygon class="cls-37" points="223.49 167.61 221.18 166.27 221.17 167.75 223.49 169.08 223.49 167.61"/><polygon class="cls-37" points="227.85 170.13 224.79 168.36 224.79 169.83 227.85 171.6 227.85 170.13"/><polygon class="cls-37" points="234.08 173.72 229.15 170.88 229.15 172.35 234.08 175.2 234.08 173.72"/><polygon class="cls-37" points="235.88 145.68 238.2 147.01 238.2 145.54 235.88 144.2 235.88 145.68"/><polygon class="cls-37" points="231.52 143.16 234.58 144.93 234.58 143.45 231.52 141.68 231.52 143.16"/><polygon class="cls-37" points="225.29 139.56 230.22 142.41 230.22 140.93 225.29 138.09 225.29 139.56"/><polygon class="cls-37" points="239.93 151.14 244.86 153.99 244.87 152.52 239.93 149.67 239.93 151.14"/><polygon class="cls-37" points="231.91 146.75 238.56 150.59 238.56 149.11 231.91 145.28 231.91 146.75"/><polygon class="cls-37" points="228.53 144.8 230.61 146 230.61 144.53 228.53 143.33 228.53 144.8"/><polygon class="cls-37" points="225.29 142.93 227.37 144.13 227.37 142.66 225.29 141.45 225.29 142.93"/><polygon class="cls-37" points="228.61 161.97 235.18 165.76 235.18 164.28 228.61 160.49 228.61 161.97"/><polygon class="cls-37" points="225.23 160.02 227.31 161.22 227.31 159.74 225.23 158.54 225.23 160.02"/><polygon class="cls-37" points="229.63 165.93 231.94 167.26 231.94 165.79 229.63 164.45 229.63 165.93"/><polygon class="cls-37" points="236.67 163.23 238.98 164.56 238.98 163.09 236.67 161.75 236.67 163.23"/><polygon class="cls-37" points="239.97 165.13 245.52 168.34 245.53 166.86 239.97 163.66 239.97 165.13"/><polygon class="cls-37" points="246.51 168.9 249.81 170.81 249.81 169.34 246.51 167.43 246.51 168.9"/><polygon class="cls-37" points="225.27 163.41 228.33 165.18 228.33 163.7 225.27 161.94 225.27 163.41"/><polygon class="cls-37" points="225.54 166.87 227.85 168.21 227.85 166.74 225.54 165.4 225.54 166.87"/><polygon class="cls-37" points="221.18 164.36 224.24 166.12 224.24 164.65 221.18 162.88 221.18 164.36"/><polygon class="cls-37" points="233.31 161.29 235.39 162.49 235.39 161.01 233.31 159.81 233.31 161.29"/><polygon class="cls-37" points="230.07 159.42 232.15 160.62 232.15 159.14 230.07 157.94 230.07 159.42"/><polygon class="cls-37" points="242.03 142.48 249.13 146.58 249.13 145.1 242.03 141.01 242.03 142.48"/><polygon class="cls-37" points="234.09 137.9 240.74 141.73 240.74 140.26 234.09 136.42 234.09 137.9"/><polygon class="cls-37" points="230.71 135.95 232.79 137.15 232.79 135.67 230.71 134.47 230.71 135.95"/><polygon class="cls-37" points="227.47 134.07 229.55 135.28 229.55 133.8 227.47 132.6 227.47 134.07"/><polygon class="cls-37" points="225.7 133.05 221.21 130.46 221.21 128.99 225.7 131.58 225.7 133.05"/><polygon class="cls-14" points="277.81 78.86 209.52 39.43 277.81 0 346.11 39.43 277.81 78.86"/><polygon class="cls-36" points="277.81 68.09 228.16 39.43 277.81 10.77 327.46 39.43 277.81 68.09"/><polygon class="cls-15" points="277.81 12.71 325.78 40.4 327.46 39.43 277.81 10.77 228.16 39.43 229.85 40.4 277.81 12.71"/><polygon class="cls-38" points="346.11 39.43 346.11 61.78 277.81 101.21 277.81 78.86 346.11 39.43"/><polygon class="cls-34" points="209.52 39.43 209.52 61.78 277.81 101.21 277.81 78.86 209.52 39.43"/><g class="cls-35"><polygon class="cls-36" points="214.14 49.47 214.14 56.51 273.19 90.6 273.19 83.56 214.14 49.47"/></g><polygon class="cls-15" points="277.81 77.58 210.63 38.79 209.52 39.43 277.81 78.86 346.11 39.43 345 38.79 277.81 77.58"/><polygon class="cls-36" points="335.86 55.09 335.86 59.09 288.06 86.69 288.06 82.69 335.86 55.09"/><polygon class="cls-39" points="209.52 39.43 209.52 61.78 277.81 101.21 277.81 78.86 209.52 39.43"/><polygon class="cls-37" points="257.88 77.67 245.51 70.53 245.51 72.01 257.88 79.15 257.88 77.67"/><polygon class="cls-37" points="243.73 69.52 240.38 67.58 240.37 69.06 243.72 70.99 243.73 69.52"/><polygon class="cls-37" points="228.03 60.46 221.17 56.5 221.17 57.97 228.03 61.93 228.03 60.46"/><polygon class="cls-37" points="234.28 64.07 229.33 61.21 229.32 62.68 234.28 65.55 234.28 64.07"/><polygon class="cls-37" points="238.93 66.75 235.58 64.82 235.58 66.29 238.93 68.23 238.93 66.75"/><polygon class="cls-37" points="277.88 20.61 275.71 19.36 277.88 18.1 280.05 19.36 277.88 20.61"/><polygon class="cls-40" points="282.22 23.11 280.05 21.86 282.22 20.61 284.39 21.86 282.22 23.11"/><polygon class="cls-41" points="286.56 25.62 284.39 24.36 286.56 23.11 288.73 24.36 286.56 25.62"/><polygon class="cls-37" points="290.89 28.12 288.73 26.87 290.89 25.62 293.06 26.87 290.89 28.12"/><polygon class="cls-41" points="295.23 30.63 293.06 29.37 295.23 28.12 297.4 29.37 295.23 30.63"/><polygon class="cls-37" points="299.57 33.13 297.4 31.88 299.57 30.63 301.74 31.88 299.57 33.13"/><polygon class="cls-37" points="303.91 35.63 301.74 34.38 303.91 33.13 306.07 34.38 303.91 35.63"/><polygon class="cls-37" points="308.24 38.14 306.07 36.89 308.24 35.63 310.41 36.89 308.24 38.14"/><polygon class="cls-40" points="312.58 40.64 310.41 39.39 312.58 38.14 314.75 39.39 312.58 40.64"/><polygon class="cls-37" points="273.53 23.12 271.36 21.87 273.53 20.62 275.7 21.87 273.53 23.12"/><polygon class="cls-37" points="277.87 25.63 275.7 24.38 277.87 23.12 280.03 24.38 277.87 25.63"/><polygon class="cls-37" points="282.2 28.13 280.03 26.88 282.2 25.63 284.37 26.88 282.2 28.13"/><polygon class="cls-37" points="286.54 30.64 284.37 29.38 286.54 28.13 288.71 29.38 286.54 30.64"/><polygon class="cls-37" points="290.88 33.14 288.71 31.89 290.88 30.64 293.05 31.89 290.88 33.14"/><polygon class="cls-37" points="295.21 35.64 293.05 34.39 295.21 33.14 297.38 34.39 295.21 35.64"/><polygon class="cls-37" points="299.55 38.15 297.38 36.9 299.55 35.64 301.72 36.9 299.55 38.15"/><polygon class="cls-37" points="303.89 40.65 301.72 39.4 303.89 38.15 306.06 39.4 303.89 40.65"/><polygon class="cls-37" points="308.23 43.16 306.06 41.9 308.23 40.65 310.39 41.9 308.23 43.16"/><polygon class="cls-37" points="269.17 25.64 267 24.39 269.17 23.13 271.34 24.39 269.17 25.64"/><polygon class="cls-37" points="273.51 28.14 271.34 26.89 273.51 25.64 275.68 26.89 273.51 28.14"/><polygon class="cls-37" points="277.85 30.64 275.68 29.39 277.85 28.14 280.02 29.39 277.85 30.64"/><polygon class="cls-40" points="282.19 33.15 280.02 31.9 282.19 30.64 284.35 31.9 282.19 33.15"/><polygon class="cls-41" points="286.52 35.65 284.35 34.4 286.52 33.15 288.69 34.4 286.52 35.65"/><polygon class="cls-41" points="290.86 38.16 288.69 36.91 290.86 35.65 293.03 36.91 290.86 38.16"/><polygon class="cls-37" points="295.2 40.66 293.03 39.41 295.2 38.16 297.37 39.41 295.2 40.66"/><polygon class="cls-37" points="299.53 43.17 297.37 41.91 299.53 40.66 301.7 41.91 299.53 43.17"/><polygon class="cls-37" points="303.87 45.67 301.7 44.42 303.87 43.17 306.04 44.42 303.87 45.67"/><polygon class="cls-41" points="264.82 28.15 262.65 26.9 264.82 25.65 266.99 26.9 264.82 28.15"/><polygon class="cls-41" points="269.15 30.66 266.99 29.4 269.15 28.15 271.32 29.4 269.15 30.66"/><polygon class="cls-40" points="273.49 33.16 271.32 31.91 273.49 30.66 275.66 31.91 273.49 33.16"/><polygon class="cls-37" points="277.83 35.66 275.66 34.41 277.83 33.16 280 34.41 277.83 35.66"/><polygon class="cls-37" points="282.17 38.17 280 36.92 282.17 35.66 284.34 36.92 282.17 38.17"/><polygon class="cls-37" points="286.5 40.67 284.34 39.42 286.5 38.17 288.67 39.42 286.5 40.67"/><polygon class="cls-41" points="290.84 43.18 288.67 41.92 290.84 40.67 293.01 41.92 290.84 43.18"/><polygon class="cls-37" points="295.18 45.68 293.01 44.43 295.18 43.18 297.35 44.43 295.18 45.68"/><polygon class="cls-37" points="299.52 48.19 297.35 46.93 299.52 45.68 301.69 46.93 299.52 48.19"/><polygon class="cls-37" points="260.46 30.67 258.29 29.41 260.46 28.16 262.63 29.41 260.46 30.67"/><polygon class="cls-37" points="264.8 33.17 262.63 31.92 264.8 30.67 266.97 31.92 264.8 33.17"/><polygon class="cls-37" points="269.14 35.67 266.97 34.42 269.14 33.17 271.31 34.42 269.14 35.67"/><polygon class="cls-37" points="273.48 38.18 271.31 36.93 273.48 35.67 275.64 36.93 273.48 38.18"/><polygon class="cls-37" points="277.81 40.68 275.64 39.43 277.81 38.18 279.98 39.43 277.81 40.68"/><polygon class="cls-37" points="282.15 43.19 279.98 41.94 282.15 40.68 284.32 41.94 282.15 43.19"/><polygon class="cls-37" points="286.49 45.69 284.32 44.44 286.49 43.19 288.66 44.44 286.49 45.69"/><polygon class="cls-37" points="290.82 48.2 288.66 46.94 290.82 45.69 292.99 46.94 290.82 48.2"/><polygon class="cls-37" points="295.16 50.7 292.99 49.45 295.16 48.2 297.33 49.45 295.16 50.7"/><polygon class="cls-37" points="256.11 33.18 253.94 31.93 256.11 30.68 258.28 31.93 256.11 33.18"/><polygon class="cls-37" points="260.44 35.68 258.28 34.43 260.44 33.18 262.61 34.43 260.44 35.68"/><polygon class="cls-41" points="264.78 38.19 262.61 36.94 264.78 35.68 266.95 36.94 264.78 38.19"/><polygon class="cls-37" points="269.12 40.69 266.95 39.44 269.12 38.19 271.29 39.44 269.12 40.69"/><polygon class="cls-40" points="273.46 43.2 271.29 41.95 273.46 40.69 275.63 41.95 273.46 43.2"/><polygon class="cls-37" points="277.8 45.7 275.63 44.45 277.8 43.2 279.96 44.45 277.8 45.7"/><polygon class="cls-37" points="282.13 48.2 279.96 46.95 282.13 45.7 284.3 46.95 282.13 48.2"/><polygon class="cls-37" points="286.47 50.71 284.3 49.46 286.47 48.2 288.64 49.46 286.47 50.71"/><polygon class="cls-37" points="290.81 53.21 288.64 51.96 290.81 50.71 292.98 51.96 290.81 53.21"/><polygon class="cls-37" points="251.75 35.69 249.58 34.44 251.75 33.19 253.92 34.44 251.75 35.69"/><polygon class="cls-37" points="256.09 38.2 253.92 36.95 256.09 35.69 258.26 36.95 256.09 38.2"/><polygon class="cls-41" points="260.43 40.7 258.26 39.45 260.43 38.2 262.6 39.45 260.43 40.7"/><polygon class="cls-37" points="264.76 43.21 262.6 41.95 264.76 40.7 266.93 41.95 264.76 43.21"/><polygon class="cls-37" points="269.1 45.71 266.93 44.46 269.1 43.21 271.27 44.46 269.1 45.71"/><polygon class="cls-40" points="273.44 48.22 271.27 46.96 273.44 45.71 275.61 46.96 273.44 48.22"/><polygon class="cls-41" points="277.78 50.72 275.61 49.47 277.78 48.22 279.95 49.47 277.78 50.72"/><polygon class="cls-37" points="282.12 53.22 279.95 51.97 282.11 50.72 284.28 51.97 282.12 53.22"/><polygon class="cls-40" points="286.45 55.73 284.28 54.48 286.45 53.22 288.62 54.48 286.45 55.73"/><polygon class="cls-37" points="247.4 38.21 245.23 36.96 247.4 35.7 249.57 36.96 247.4 38.21"/><polygon class="cls-41" points="251.74 40.71 249.57 39.46 251.74 38.21 253.9 39.46 251.74 40.71"/><polygon class="cls-37" points="256.07 43.22 253.9 41.97 256.07 40.71 258.24 41.97 256.07 43.22"/><polygon class="cls-37" points="260.41 45.72 258.24 44.47 260.41 43.22 262.58 44.47 260.41 45.72"/><polygon class="cls-37" points="264.75 48.23 262.58 46.97 264.75 45.72 266.92 46.97 264.75 48.23"/><polygon class="cls-37" points="269.08 50.73 266.92 49.48 269.08 48.23 271.25 49.48 269.08 50.73"/><polygon class="cls-37" points="273.42 53.23 271.25 51.98 273.42 50.73 275.59 51.98 273.42 53.23"/><polygon class="cls-41" points="277.76 55.74 275.59 54.49 277.76 53.23 279.93 54.49 277.76 55.74"/><polygon class="cls-37" points="282.1 58.24 279.93 56.99 282.1 55.74 284.27 56.99 282.1 58.24"/><polygon class="cls-37" points="243.04 40.72 240.88 39.47 243.04 38.22 245.21 39.47 243.04 40.72"/><polygon class="cls-40" points="247.38 43.23 245.21 41.98 247.38 40.72 249.55 41.98 247.38 43.23"/><polygon class="cls-37" points="251.72 45.73 249.55 44.48 251.72 43.23 253.89 44.48 251.72 45.73"/><polygon class="cls-37" points="256.06 48.23 253.89 46.98 256.06 45.73 258.22 46.98 256.06 48.23"/><polygon class="cls-37" points="260.39 50.74 258.22 49.49 260.39 48.23 262.56 49.49 260.39 50.74"/><polygon class="cls-37" points="264.73 53.24 262.56 51.99 264.73 50.74 266.9 51.99 264.73 53.24"/><polygon class="cls-41" points="269.07 55.75 266.9 54.5 269.07 53.24 271.24 54.5 269.07 55.75"/><polygon class="cls-37" points="273.4 58.25 271.24 57 273.4 55.75 275.57 57 273.4 58.25"/><polygon class="cls-37" points="277.74 60.76 275.57 59.5 277.74 58.25 279.91 59.5 277.74 60.76"/><path class="cls-3" d="M107.17,309.92a5.92,5.92,0,0,1-3-.79L69.86,289.3a1.7,1.7,0,0,1,0-3l62.29-36,.46.26,36.86,21.28a1.71,1.71,0,0,1,0,3l-59.33,34.25A5.92,5.92,0,0,1,107.17,309.92Zm25-58.79-62,35.78a1,1,0,0,0-.53.91,1.07,1.07,0,0,0,.53.92l34.34,19.82a5.36,5.36,0,0,0,5.29,0l59.32-34.25a1.06,1.06,0,0,0,0-1.82Z" transform="translate(-24.95 -84.56)"/><path class="cls-42" d="M132.23,236.6l-8.26-49,.66-.28-1-.57h0a.71.71,0,0,0-.77.06l-66,38.13a1.89,1.89,0,0,0-.86,1.68L64.29,276a.64.64,0,0,0,.34.51h0l1,.56.17-.91h-.06l65.65-37.9A1.86,1.86,0,0,0,132.23,236.6Z" transform="translate(-24.95 -84.56)"/><path class="cls-43" d="M57.18,226.25l-1.09-.48a1.54,1.54,0,0,0-.14.82L64.29,276a.64.64,0,0,0,.34.51h0l1,.56.17-.91h-.06L69,274.27Z" transform="translate(-24.95 -84.56)"/><path class="cls-34" d="M132.41,238.88,66.36,277c-.51.29-1,.12-1-.4L57,227.18a1.87,1.87,0,0,1,.86-1.67l66.05-38.14c.51-.29.95-.12,1,.41l8.33,49.42A1.9,1.9,0,0,1,132.41,238.88Z" transform="translate(-24.95 -84.56)"/><g class="cls-35"><polygon class="cls-36" points="98.09 105.97 34.42 142.73 42.32 189.27 105.94 152.54 98.09 105.97"/></g><path class="cls-44" d="M173.93,262.27l-3.61,1.89-36.14-20.87a2.6,2.6,0,0,0-2.36.1l-62.34,36c-.6-.34-3.32-1.64-3.32-1.64l1.32,3.43h0a.76.76,0,0,0,.37.41l38.07,22a2.61,2.61,0,0,0,2.35-.1l63.8-36.83a1.18,1.18,0,0,0,.53-.57h0Z" transform="translate(-24.95 -84.56)"/><path class="cls-45" d="M173.37,262.87,108,300.61a2.66,2.66,0,0,1-2.42.1l-39-22.52c-.62-.36-.54-1,.17-1.4l65.38-37.74a2.66,2.66,0,0,1,2.42-.1l39,22.52C174.16,261.83,174.09,262.45,173.37,262.87Z" transform="translate(-24.95 -84.56)"/><path class="cls-15" d="M173.37,262.49,108,300.24a2.73,2.73,0,0,1-2.42.1l-39-22.53a.84.84,0,0,1-.38-.42.66.66,0,0,0,.38.8l39,22.52a2.66,2.66,0,0,0,2.42-.1l65.38-37.74c.48-.28.67-.65.55-1A1.11,1.11,0,0,1,173.37,262.49Z" transform="translate(-24.95 -84.56)"/><path class="cls-46" d="M88.27,292.45v-.72c0-.07,0-.1.09-.07l2.53,1.46a.24.24,0,0,1,.1.18V294c0,.07,0,.1-.1.07l-2.53-1.46A.19.19,0,0,1,88.27,292.45Z" transform="translate(-24.95 -84.56)"/><path class="cls-46" d="M92.05,294.63v-.72a.07.07,0,0,1,.1-.07l2.52,1.46a.21.21,0,0,1,.1.18v.72c0,.07,0,.1-.1.07l-2.52-1.46A.21.21,0,0,1,92.05,294.63Z" transform="translate(-24.95 -84.56)"/><path class="cls-47" d="M76.73,276.08l54.33-31.37a1.17,1.17,0,0,1,1.17,0l19.35,11.2a.41.41,0,0,1,0,.72L97.27,288a1.17,1.17,0,0,1-1.17,0L76.73,276.8A.41.41,0,0,1,76.73,276.08Z" transform="translate(-24.95 -84.56)"/><path class="cls-48" d="M76.73,276.8l.2.11,54.13-31.25a1.17,1.17,0,0,1,1.17,0l19.15,11.08.2-.11a.41.41,0,0,0,0-.72l-19.35-11.2a1.17,1.17,0,0,0-1.17,0L76.73,276.08A.41.41,0,0,0,76.73,276.8Z" transform="translate(-24.95 -84.56)"/><polygon class="cls-34" points="108.75 162.99 61.55 190.24 59.45 189.02 106.65 161.78 108.75 162.99"/><polygon class="cls-34" points="113.89 165.96 69.62 191.51 67.53 190.3 111.79 164.75 113.89 165.96"/><polygon class="cls-34" points="117.24 167.89 65.12 197.98 63.02 196.77 115.14 166.68 117.24 167.89"/><polygon class="cls-34" points="120.59 169.83 68.47 199.92 66.37 198.71 118.49 168.62 120.59 169.83"/><polygon class="cls-34" points="123.94 171.76 71.82 201.85 69.72 200.64 121.84 170.55 123.94 171.76"/><polygon class="cls-34" points="58.7 191.88 56.6 193.09 54.5 191.88 56.6 190.67 58.7 191.88"/><polygon class="cls-34" points="66.1 193.55 61.75 196.06 59.65 194.85 64 192.34 66.1 193.55"/><path class="cls-49" d="M133.15,283.67l14.65-8.46c.58-.33.58-.86,0-1.2l-10-5.78a2.31,2.31,0,0,0-2.08,0l-14.65,8.46a.63.63,0,0,0,0,1.2l10,5.78A2.29,2.29,0,0,0,133.15,283.67Z" transform="translate(-24.95 -84.56)"/><path class="cls-48" d="M121.06,277.18l14.65-8.46a2.31,2.31,0,0,1,2.08,0l10,5.78a1,1,0,0,1,.36.36c.15-.29,0-.62-.36-.85l-10-5.78a2.31,2.31,0,0,0-2.08,0l-14.65,8.46c-.39.23-.51.55-.36.84A.93.93,0,0,1,121.06,277.18Z" transform="translate(-24.95 -84.56)"/><g class="cls-50"><g class="cls-51"><path class="cls-52" d="M132.18,239,66.8,276.72a2.73,2.73,0,0,1-2.42.1l-39-22.53c-.62-.36-.55-1,.17-1.4l65.38-37.74a2.66,2.66,0,0,1,2.42-.1l39,22.52C133,237.93,132.89,238.56,132.18,239Z" transform="translate(-24.95 -84.56)"/><path class="cls-53" d="M66.6,245.74l14.65-8.46a.63.63,0,0,0,0-1.2l-10-5.78a2.29,2.29,0,0,0-2.07,0l-14.65,8.45c-.57.34-.57.87,0,1.2l10,5.79A2.29,2.29,0,0,0,66.6,245.74Z" transform="translate(-24.95 -84.56)"/><path class="cls-48" d="M54.51,239.24l14.65-8.45a2.29,2.29,0,0,1,2.07,0l10,5.78a.93.93,0,0,1,.36.35c.15-.28,0-.61-.36-.84l-10-5.78a2.29,2.29,0,0,0-2.07,0l-14.65,8.45c-.39.23-.51.56-.36.85A1,1,0,0,1,54.51,239.24Z" transform="translate(-24.95 -84.56)"/><path class="cls-47" d="M48.07,259l54.33-31.36a1.17,1.17,0,0,1,1.17,0l19.35,11.19a.41.41,0,0,1,0,.72L68.61,270.86a1.2,1.2,0,0,1-1.16,0L48.07,259.68A.42.42,0,0,1,48.07,259Z" transform="translate(-24.95 -84.56)"/><path class="cls-48" d="M48.07,259.68l.2.11,54.13-31.26a1.17,1.17,0,0,1,1.17,0l19.16,11.08.19-.11a.41.41,0,0,0,0-.72l-19.35-11.19a1.17,1.17,0,0,0-1.17,0L48.07,259A.42.42,0,0,0,48.07,259.68Z" transform="translate(-24.95 -84.56)"/><polygon class="cls-34" points="92.91 153.46 45.58 180.78 47.45 181.87 94.78 154.54 92.91 153.46"/><polygon class="cls-34" points="87.92 150.58 42.94 176.55 44.81 177.63 89.8 151.66 87.92 150.58"/><polygon class="cls-34" points="39.58 178.49 35.37 180.92 37.25 182 41.45 179.57 39.58 178.49"/><polygon class="cls-34" points="43.29 182.11 40.36 183.8 42.24 184.88 45.16 183.19 43.29 182.11"/><polygon class="cls-34" points="84.8 148.77 32.25 179.11 34.12 180.19 86.67 149.86 84.8 148.77"/><polygon class="cls-34" points="81.67 146.97 29.13 177.31 31 178.39 83.55 148.05 81.67 146.97"/><polygon class="cls-34" points="78.55 145.17 26 175.5 27.88 176.59 80.42 146.25 78.55 145.17"/></g></g><polygon class="cls-37" points="58.4 171.53 63.55 168.55 63.7 169.44 58.55 172.42 58.4 171.53"/><polygon class="cls-37" points="64.38 168.07 67.18 166.45 67.33 167.34 64.53 168.97 64.38 168.07"/><polygon class="cls-37" points="71.55 163.93 73.58 162.76 73.73 163.65 71.7 164.82 71.55 163.93"/><polygon class="cls-37" points="70.07 164.79 70.76 164.38 70.91 165.28 70.22 165.68 70.07 164.79"/><polygon class="cls-37" points="68.02 165.97 69.28 165.24 69.43 166.13 68.17 166.86 68.02 165.97"/><polygon class="cls-37" points="62.47 164.68 64.5 163.51 64.65 164.41 62.62 165.58 62.47 164.68"/><polygon class="cls-37" points="57.7 167.44 61.68 165.14 61.84 166.03 57.86 168.33 57.7 167.44"/><polygon class="cls-37" points="63.41 152.94 67.39 150.64 67.54 151.54 63.56 153.84 63.41 152.94"/><polygon class="cls-37" points="61.36 154.13 62.62 153.4 62.77 154.29 61.51 155.02 61.36 154.13"/><polygon class="cls-37" points="64.07 157.03 68.05 154.74 68.2 155.63 64.22 157.93 64.07 157.03"/><polygon class="cls-37" points="62.03 158.22 63.29 157.49 63.44 158.38 62.18 159.11 62.03 158.22"/><polygon class="cls-37" points="60.47 135.28 52.98 139.62 52.83 138.72 60.32 134.39 60.47 135.28"/><polygon class="cls-37" points="63.11 133.76 61.26 134.83 61.11 133.93 62.96 132.86 63.11 133.76"/><polygon class="cls-37" points="76.29 132.89 68.79 137.22 68.64 136.32 76.14 131.99 76.29 132.89"/><polygon class="cls-37" points="78.93 131.36 77.07 132.43 76.92 131.54 78.78 130.47 78.93 131.36"/><polygon class="cls-37" points="55.35 140.49 53.32 141.66 53.17 140.76 55.2 139.59 55.35 140.49"/><polygon class="cls-37" points="67.71 137.83 65.68 139.01 65.53 138.11 67.56 136.94 67.71 137.83"/><polygon class="cls-37" points="60.12 137.73 56.14 140.03 55.99 139.13 59.97 136.84 60.12 137.73"/><polygon class="cls-37" points="62.17 136.55 60.91 137.28 60.76 136.38 62.02 135.65 62.17 136.55"/><polygon class="cls-37" points="66.97 133.78 62.99 136.08 62.84 135.18 66.82 132.88 66.97 133.78"/><polygon class="cls-37" points="69.02 132.59 67.75 133.32 67.6 132.43 68.86 131.7 69.02 132.59"/><polygon class="cls-37" points="67.36 135.79 65.33 136.96 65.18 136.07 67.21 134.9 67.36 135.79"/><polygon class="cls-37" points="72.13 133.04 68.15 135.34 68 134.44 71.98 132.14 72.13 133.04"/><polygon class="cls-37" points="74.18 131.85 72.92 132.58 72.77 131.69 74.03 130.96 74.18 131.85"/><polygon class="cls-37" points="57.82 141.3 53.67 143.7 53.52 142.81 57.67 140.41 57.82 141.3"/><polygon class="cls-37" points="61.61 139.11 58.61 140.84 58.46 139.95 61.46 138.21 61.61 139.11"/><polygon class="cls-37" points="64.43 137.48 62.4 138.65 62.25 137.76 64.28 136.59 64.43 137.48"/><polygon class="cls-37" points="84.13 128.37 79.97 130.77 79.82 129.87 83.97 127.47 84.13 128.37"/><polygon class="cls-37" points="87.92 126.17 84.91 127.91 84.76 127.02 87.77 125.28 87.92 126.17"/><polygon class="cls-37" points="90.74 124.55 88.7 125.72 88.55 124.82 90.58 123.65 90.74 124.55"/><polygon class="cls-37" points="82.5 155.36 86.66 152.96 86.81 153.86 82.66 156.26 82.5 155.36"/><polygon class="cls-37" points="78.71 157.55 81.72 155.82 81.87 156.71 78.86 158.45 78.71 157.55"/><polygon class="cls-37" points="75.89 159.18 77.92 158.01 78.08 158.9 76.05 160.08 75.89 159.18"/><polygon class="cls-37" points="81.12 158.41 85.28 156.01 85.43 156.9 81.28 159.31 81.12 158.41"/><polygon class="cls-37" points="77.33 160.6 80.34 158.87 80.49 159.76 77.48 161.5 77.33 160.6"/><polygon class="cls-37" points="74.52 162.23 76.55 161.06 76.7 161.95 74.67 163.13 74.52 162.23"/><polygon class="cls-37" points="64.35 154.63 65.75 153.82 65.9 154.72 64.5 155.53 64.35 154.63"/><polygon class="cls-37" points="61.71 156.16 63.56 155.09 63.71 155.98 61.86 157.05 61.71 156.16"/><polygon class="cls-37" points="58.19 143.33 54.04 145.73 53.89 144.84 58.04 142.44 58.19 143.33"/><polygon class="cls-37" points="61.99 141.14 58.98 142.88 58.83 141.98 61.84 140.25 61.99 141.14"/><polygon class="cls-37" points="64.8 139.51 62.77 140.69 62.62 139.79 64.65 138.62 64.8 139.51"/><polygon class="cls-37" points="55.79 146.97 54.38 147.78 54.23 146.88 55.64 146.07 55.79 146.97"/><polygon class="cls-37" points="58.43 145.44 56.58 146.51 56.42 145.62 58.28 144.54 58.43 145.44"/><polygon class="cls-37" points="62.2 143.26 59.22 144.98 59.06 144.09 62.05 142.36 62.2 143.26"/><polygon class="cls-37" points="66.26 160.27 67.66 159.45 67.81 160.35 66.41 161.16 66.26 160.27"/><polygon class="cls-37" points="63.62 161.79 65.47 160.72 65.62 161.62 63.77 162.69 63.62 161.79"/><polygon class="cls-37" points="59.84 163.97 62.83 162.25 62.98 163.14 59.99 164.87 59.84 163.97"/><polygon class="cls-37" points="68.39 156.95 71.38 155.22 71.53 156.12 68.55 157.84 68.39 156.95"/><polygon class="cls-37" points="63.51 159.61 67.53 157.28 67.69 158.18 63.66 160.51 63.51 159.61"/><polygon class="cls-37" points="61.46 160.8 62.72 160.07 62.87 160.96 61.61 161.69 61.46 160.8"/><polygon class="cls-37" points="59.49 161.93 60.76 161.2 60.91 162.1 59.65 162.83 59.49 161.93"/><polygon class="cls-37" points="59.77 150.39 63.74 148.09 63.9 148.98 59.92 151.28 59.77 150.39"/><polygon class="cls-37" points="57.72 151.57 58.98 150.84 59.13 151.74 57.87 152.46 57.72 151.57"/><polygon class="cls-37" points="60.04 147.98 61.44 147.17 61.59 148.07 60.19 148.88 60.04 147.98"/><polygon class="cls-37" points="64.99 149.62 66.4 148.81 66.55 149.7 65.14 150.51 64.99 149.62"/><polygon class="cls-37" points="66.99 148.47 70.36 146.52 70.51 147.41 67.14 149.36 66.99 148.47"/><polygon class="cls-37" points="70.96 146.18 72.96 145.02 73.11 145.91 71.11 147.07 70.96 146.18"/><polygon class="cls-37" points="57.4 149.51 59.25 148.44 59.4 149.33 57.55 150.41 57.4 149.51"/><polygon class="cls-37" points="57.22 147.41 58.63 146.6 58.78 147.49 57.37 148.31 57.22 147.41"/><polygon class="cls-37" points="54.58 148.94 56.44 147.87 56.59 148.76 54.73 149.83 54.58 148.94"/><polygon class="cls-37" points="62.96 150.8 64.22 150.07 64.37 150.96 63.11 151.69 62.96 150.8"/><polygon class="cls-37" points="60.99 151.93 62.25 151.2 62.4 152.1 61.14 152.83 60.99 151.93"/><polygon class="cls-37" points="70.67 162.2 74.97 159.72 75.12 160.61 70.82 163.09 70.67 162.2"/><polygon class="cls-37" points="65.86 164.98 69.89 162.66 70.04 163.55 66.01 165.88 65.86 164.98"/><polygon class="cls-37" points="63.81 166.17 65.07 165.44 65.22 166.33 63.96 167.06 63.81 166.17"/><polygon class="cls-37" points="61.85 167.3 63.11 166.57 63.26 167.47 62 168.2 61.85 167.3"/><polygon class="cls-37" points="60.77 167.92 58.05 169.49 58.2 170.39 60.92 168.82 60.77 167.92"/><path class="cls-3" d="M495.12,309.92a5.92,5.92,0,0,1-3-.79l-59.33-34.25a1.71,1.71,0,0,1,0-3l37.32-21.54.16.09,62.13,35.87a1.7,1.7,0,0,1,0,3l-34.34,19.83A5.92,5.92,0,0,1,495.12,309.92Zm-2.65-1.36a5.36,5.36,0,0,0,5.29,0l34.34-19.82a1.07,1.07,0,0,0,.53-.92,1,1,0,0,0-.53-.91l-62-35.78-.13.08-36.86,21.28a1.06,1.06,0,0,0,0,1.82Z" transform="translate(-24.95 -84.56)"/><path class="cls-54" d="M470.06,236.6l8.26-49-.66-.28,1-.57h0a.71.71,0,0,1,.77.06l66.05,38.13a1.89,1.89,0,0,1,.86,1.68L538,276a.64.64,0,0,1-.34.51h0l-1,.56-.17-.91h.06l-65.65-37.9A1.84,1.84,0,0,1,470.06,236.6Z" transform="translate(-24.95 -84.56)"/><path class="cls-55" d="M545.11,226.25l1.09-.48a1.43,1.43,0,0,1,.13.82L538,276a.64.64,0,0,1-.34.51h0l-1,.56-.17-.91h.06l-3.32-1.91Z" transform="translate(-24.95 -84.56)"/><path class="cls-34" d="M469.88,238.88l66,38.13c.51.29,1,.12,1-.4l8.33-49.43a1.87,1.87,0,0,0-.86-1.67l-66.05-38.14c-.51-.29-.95-.12-1,.41L469,237.2A1.9,1.9,0,0,0,469.88,238.88Z" transform="translate(-24.95 -84.56)"/><g class="cls-35"><polygon class="cls-36" points="454.31 105.97 517.97 142.73 510.08 189.27 446.45 152.54 454.31 105.97"/></g><path class="cls-56" d="M428.36,262.27l3.61,1.89,36.14-20.87a2.6,2.6,0,0,1,2.36.1l62.34,36c.6-.34,3.32-1.64,3.32-1.64l-1.32,3.43h0a.76.76,0,0,1-.37.41l-38.07,22a2.61,2.61,0,0,1-2.35-.1l-63.8-36.83a1.18,1.18,0,0,1-.53-.57h0Z" transform="translate(-24.95 -84.56)"/><path class="cls-57" d="M428.92,262.87l65.38,37.74a2.66,2.66,0,0,0,2.42.1l39-22.52c.62-.36.54-1-.17-1.4l-65.38-37.74a2.66,2.66,0,0,0-2.42-.1l-39,22.52C428.13,261.83,428.2,262.45,428.92,262.87Z" transform="translate(-24.95 -84.56)"/><path class="cls-15" d="M428.92,262.49l65.38,37.75a2.73,2.73,0,0,0,2.42.1l39-22.53a.84.84,0,0,0,.38-.42.66.66,0,0,1-.38.8l-39,22.52a2.66,2.66,0,0,1-2.42-.1l-65.38-37.74c-.48-.28-.67-.65-.55-1A1.11,1.11,0,0,0,428.92,262.49Z" transform="translate(-24.95 -84.56)"/><path class="cls-46" d="M514,292.45v-.72c0-.07,0-.1-.09-.07l-2.53,1.46a.24.24,0,0,0-.1.18V294c0,.07.05.1.1.07l2.53-1.46A.19.19,0,0,0,514,292.45Z" transform="translate(-24.95 -84.56)"/><path class="cls-46" d="M510.24,294.63v-.72a.07.07,0,0,0-.1-.07l-2.52,1.46a.21.21,0,0,0-.1.18v.72c0,.07,0,.1.1.07l2.52-1.46A.21.21,0,0,0,510.24,294.63Z" transform="translate(-24.95 -84.56)"/><path class="cls-47" d="M525.56,276.08l-54.33-31.37a1.17,1.17,0,0,0-1.17,0l-19.35,11.2a.41.41,0,0,0,0,.72L505,288a1.17,1.17,0,0,0,1.17,0l19.37-11.18A.41.41,0,0,0,525.56,276.08Z" transform="translate(-24.95 -84.56)"/><path class="cls-48" d="M525.56,276.8l-.2.11-54.13-31.25a1.17,1.17,0,0,0-1.17,0l-19.15,11.08-.2-.11a.41.41,0,0,1,0-.72l19.35-11.2a1.17,1.17,0,0,1,1.17,0l54.33,31.37A.41.41,0,0,1,525.56,276.8Z" transform="translate(-24.95 -84.56)"/><polygon class="cls-34" points="443.65 162.99 490.84 190.24 492.94 189.02 445.75 161.78 443.65 162.99"/><polygon class="cls-34" points="438.51 165.96 482.77 191.51 484.87 190.3 440.61 164.75 438.51 165.96"/><polygon class="cls-34" points="435.16 167.89 487.27 197.98 489.37 196.77 437.25 166.68 435.16 167.89"/><polygon class="cls-34" points="431.81 169.83 483.92 199.92 486.02 198.71 433.9 168.62 431.81 169.83"/><polygon class="cls-34" points="428.45 171.76 480.57 201.85 482.67 200.64 430.55 170.55 428.45 171.76"/><polygon class="cls-34" points="493.7 191.88 495.79 193.09 497.89 191.88 495.79 190.67 493.7 191.88"/><polygon class="cls-34" points="486.3 193.55 490.65 196.06 492.75 194.85 488.39 192.34 486.3 193.55"/><path class="cls-58" d="M469.14,283.67l-14.65-8.46c-.58-.33-.58-.86,0-1.2l10-5.78a2.31,2.31,0,0,1,2.08,0l14.65,8.46a.63.63,0,0,1,0,1.2l-10,5.78A2.29,2.29,0,0,1,469.14,283.67Z" transform="translate(-24.95 -84.56)"/><path class="cls-48" d="M481.23,277.18l-14.65-8.46a2.31,2.31,0,0,0-2.08,0l-10,5.78a.88.88,0,0,0-.36.36c-.15-.29,0-.62.36-.85l10-5.78a2.31,2.31,0,0,1,2.08,0l14.65,8.46c.39.23.51.55.36.84A.93.93,0,0,0,481.23,277.18Z" transform="translate(-24.95 -84.56)"/><g class="cls-50"><g class="cls-59"><path class="cls-60" d="M470.11,239l65.38,37.75a2.73,2.73,0,0,0,2.42.1l39-22.53c.62-.36.55-1-.17-1.4l-65.38-37.74a2.66,2.66,0,0,0-2.42-.1l-39,22.52C469.32,237.93,469.4,238.56,470.11,239Z" transform="translate(-24.95 -84.56)"/><path class="cls-61" d="M535.69,245.74,521,237.28a.63.63,0,0,1,0-1.2l10-5.78a2.29,2.29,0,0,1,2.07,0l14.65,8.45c.57.34.57.87,0,1.2l-10,5.79A2.29,2.29,0,0,1,535.69,245.74Z" transform="translate(-24.95 -84.56)"/><path class="cls-48" d="M547.78,239.24l-14.65-8.45a2.29,2.29,0,0,0-2.07,0l-10,5.78a.93.93,0,0,0-.36.35c-.15-.28,0-.61.36-.84l10-5.78a2.29,2.29,0,0,1,2.07,0l14.65,8.45c.39.23.51.56.36.85A1,1,0,0,0,547.78,239.24Z" transform="translate(-24.95 -84.56)"/><path class="cls-47" d="M554.22,259l-54.33-31.36a1.17,1.17,0,0,0-1.17,0l-19.35,11.19a.41.41,0,0,0,0,.72l54.31,31.36a1.2,1.2,0,0,0,1.16,0l19.38-11.18A.42.42,0,0,0,554.22,259Z" transform="translate(-24.95 -84.56)"/><path class="cls-48" d="M554.22,259.68l-.2.11-54.13-31.26a1.17,1.17,0,0,0-1.17,0l-19.16,11.08-.19-.11a.41.41,0,0,1,0-.72l19.35-11.19a1.17,1.17,0,0,1,1.17,0L554.22,259A.42.42,0,0,1,554.22,259.68Z" transform="translate(-24.95 -84.56)"/><polygon class="cls-34" points="459.49 153.46 506.82 180.78 504.94 181.87 457.61 154.54 459.49 153.46"/><polygon class="cls-34" points="464.47 150.58 509.46 176.55 507.59 177.63 462.6 151.66 464.47 150.58"/><polygon class="cls-34" points="512.82 178.49 517.02 180.92 515.15 182 510.94 179.57 512.82 178.49"/><polygon class="cls-34" points="509.11 182.11 512.03 183.8 510.16 184.88 507.23 183.19 509.11 182.11"/><polygon class="cls-34" points="467.6 148.77 520.15 179.11 518.27 180.19 465.72 149.86 467.6 148.77"/><polygon class="cls-34" points="470.72 146.97 523.27 177.31 521.4 178.39 468.85 148.05 470.72 146.97"/><polygon class="cls-34" points="473.85 145.17 526.4 175.5 524.52 176.59 471.97 146.25 473.85 145.17"/></g></g><polygon class="cls-37" points="468.32 123.45 473.47 126.43 473.63 125.53 468.47 122.56 468.32 123.45"/><polygon class="cls-37" points="474.3 126.9 477.11 128.53 477.26 127.63 474.45 126.01 474.3 126.9"/><polygon class="cls-37" points="481.48 131.05 483.51 132.22 483.66 131.32 481.63 130.15 481.48 131.05"/><polygon class="cls-37" points="480 130.19 480.69 130.59 480.84 129.7 480.15 129.3 480 130.19"/><polygon class="cls-37" points="477.95 129.01 479.21 129.74 479.36 128.84 478.1 128.11 477.95 129.01"/><polygon class="cls-37" points="472.4 130.29 474.43 131.47 474.58 130.57 472.55 129.4 472.4 130.29"/><polygon class="cls-37" points="467.63 127.54 471.61 129.84 471.76 128.94 467.78 126.64 467.63 127.54"/><polygon class="cls-37" points="473.34 142.03 477.32 144.33 477.47 143.44 473.49 141.14 473.34 142.03"/><polygon class="cls-37" points="471.29 140.85 472.55 141.58 472.7 140.69 471.44 139.96 471.29 140.85"/><polygon class="cls-37" points="474 137.94 477.98 140.24 478.13 139.35 474.15 137.05 474 137.94"/><polygon class="cls-37" points="471.95 136.76 473.21 137.49 473.37 136.59 472.11 135.87 471.95 136.76"/><polygon class="cls-37" points="470.4 159.69 462.9 155.36 462.75 156.26 470.25 160.59 470.4 159.69"/><polygon class="cls-37" points="473.04 161.22 471.19 160.15 471.04 161.04 472.89 162.11 473.04 161.22"/><polygon class="cls-37" points="486.21 162.09 478.72 157.76 478.57 158.65 486.06 162.98 486.21 162.09"/><polygon class="cls-37" points="488.86 163.62 487 162.54 486.85 163.44 488.7 164.51 488.86 163.62"/><polygon class="cls-37" points="465.28 154.49 463.25 153.32 463.1 154.21 465.13 155.39 465.28 154.49"/><polygon class="cls-37" points="477.64 157.14 475.61 155.97 475.45 156.86 477.49 158.04 477.64 157.14"/><polygon class="cls-37" points="470.05 157.25 466.07 154.95 465.92 155.84 469.89 158.14 470.05 157.25"/><polygon class="cls-37" points="472.09 158.43 470.83 157.7 470.68 158.59 471.94 159.32 472.09 158.43"/><polygon class="cls-37" points="476.9 161.2 472.92 158.9 472.77 159.79 476.75 162.09 476.9 161.2"/><polygon class="cls-37" points="478.94 162.38 477.68 161.66 477.53 162.55 478.79 163.28 478.94 162.38"/><polygon class="cls-37" points="477.29 159.19 475.26 158.01 475.11 158.91 477.14 160.08 477.29 159.19"/><polygon class="cls-37" points="482.06 161.94 478.08 159.64 477.93 160.53 481.9 162.84 482.06 161.94"/><polygon class="cls-37" points="484.1 163.12 482.84 162.4 482.69 163.29 483.95 164.02 484.1 163.12"/><polygon class="cls-37" points="467.75 153.68 463.6 151.28 463.44 152.17 467.6 154.57 467.75 153.68"/><polygon class="cls-37" points="471.54 155.87 468.54 154.13 468.39 155.03 471.39 156.76 471.54 155.87"/><polygon class="cls-37" points="474.36 157.5 472.33 156.32 472.18 157.22 474.21 158.39 474.36 157.5"/><polygon class="cls-37" points="494.05 166.61 489.9 164.21 489.75 165.1 493.9 167.51 494.05 166.61"/><polygon class="cls-37" points="497.85 168.8 494.84 167.07 494.69 167.96 497.69 169.7 497.85 168.8"/><polygon class="cls-37" points="500.66 170.43 498.63 169.26 498.48 170.15 500.51 171.33 500.66 170.43"/><polygon class="cls-37" points="492.43 139.61 496.59 142.01 496.74 141.12 492.58 138.72 492.43 139.61"/><polygon class="cls-37" points="488.64 137.42 491.64 139.16 491.8 138.26 488.79 136.53 488.64 137.42"/><polygon class="cls-37" points="485.82 135.79 487.85 136.97 488 136.07 485.97 134.9 485.82 135.79"/><polygon class="cls-37" points="491.05 136.57 495.21 138.97 495.36 138.07 491.2 135.67 491.05 136.57"/><polygon class="cls-37" points="487.26 134.37 490.26 136.11 490.42 135.22 487.41 133.48 487.26 134.37"/><polygon class="cls-37" points="484.44 132.75 486.47 133.92 486.62 133.03 484.59 131.85 484.44 132.75"/><polygon class="cls-37" points="474.27 140.34 475.68 141.16 475.83 140.26 474.43 139.45 474.27 140.34"/><polygon class="cls-37" points="471.63 138.82 473.49 139.89 473.64 139 471.79 137.92 471.63 138.82"/><polygon class="cls-37" points="468.12 151.65 463.97 149.24 463.82 150.14 467.97 152.54 468.12 151.65"/><polygon class="cls-37" points="471.91 153.84 468.91 152.1 468.76 152.99 471.76 154.73 471.91 153.84"/><polygon class="cls-37" points="474.73 155.47 472.7 154.29 472.55 155.19 474.58 156.36 474.73 155.47"/><polygon class="cls-37" points="465.71 148.01 464.31 147.2 464.16 148.09 465.56 148.91 465.71 148.01"/><polygon class="cls-37" points="468.36 149.54 466.5 148.47 466.35 149.36 468.21 150.43 468.36 149.54"/><polygon class="cls-37" points="472.13 151.72 469.14 149.99 468.99 150.89 471.98 152.62 472.13 151.72"/><polygon class="cls-37" points="476.18 134.71 477.59 135.52 477.74 134.63 476.33 133.82 476.18 134.71"/><polygon class="cls-37" points="473.54 133.18 475.4 134.26 475.55 133.36 473.69 132.29 473.54 133.18"/><polygon class="cls-37" points="469.77 131 472.76 132.73 472.91 131.84 469.92 130.11 469.77 131"/><polygon class="cls-37" points="478.32 138.03 481.31 139.75 481.46 138.86 478.47 137.13 478.32 138.03"/><polygon class="cls-37" points="473.43 135.36 477.46 137.69 477.61 136.8 473.58 134.47 473.43 135.36"/><polygon class="cls-37" points="471.39 134.18 472.65 134.91 472.8 134.01 471.54 133.29 471.39 134.18"/><polygon class="cls-37" points="469.42 133.04 470.68 133.77 470.83 132.88 469.57 132.15 469.42 133.04"/><polygon class="cls-37" points="469.69 144.59 473.67 146.89 473.82 146 469.84 143.7 469.69 144.59"/><polygon class="cls-37" points="467.64 143.41 468.9 144.13 469.06 143.24 467.8 142.51 467.64 143.41"/><polygon class="cls-37" points="469.97 146.99 471.37 147.8 471.52 146.91 470.12 146.1 469.97 146.99"/><polygon class="cls-37" points="474.92 145.36 476.32 146.17 476.48 145.27 475.07 144.46 474.92 145.36"/><polygon class="cls-37" points="476.92 146.51 480.29 148.46 480.44 147.56 477.07 145.62 476.92 146.51"/><polygon class="cls-37" points="480.89 148.8 482.89 149.96 483.04 149.06 481.04 147.91 480.89 148.8"/><polygon class="cls-37" points="467.32 145.47 469.18 146.54 469.33 145.64 467.48 144.57 467.32 145.47"/><polygon class="cls-37" points="467.15 147.56 468.55 148.38 468.7 147.48 467.3 146.67 467.15 147.56"/><polygon class="cls-37" points="464.51 146.04 466.36 147.11 466.51 146.22 464.66 145.14 464.51 146.04"/><polygon class="cls-37" points="472.88 144.18 474.14 144.91 474.3 144.01 473.04 143.29 472.88 144.18"/><polygon class="cls-37" points="470.92 143.04 472.18 143.77 472.33 142.88 471.07 142.15 470.92 143.04"/><polygon class="cls-37" points="480.6 132.78 484.9 135.26 485.05 134.37 480.75 131.88 480.6 132.78"/><polygon class="cls-37" points="475.79 129.99 479.81 132.32 479.96 131.43 475.94 129.1 475.79 129.99"/><polygon class="cls-37" points="473.74 128.81 475 129.54 475.15 128.64 473.89 127.92 473.74 128.81"/><polygon class="cls-37" points="471.77 127.67 473.03 128.4 473.18 127.51 471.92 126.78 471.77 127.67"/><polygon class="cls-37" points="470.7 127.05 467.98 125.48 468.13 124.59 470.85 126.16 470.7 127.05"/><path class="cls-3" d="M217.51,353.45a4.9,4.9,0,0,1-2.49-.67L140.91,310a1.58,1.58,0,0,1,0-2.74L206,269.66l.33.57-65.13,37.6a.9.9,0,0,0-.46.8.92.92,0,0,0,.46.8l74.1,42.78a4.3,4.3,0,0,0,4.33,0L258.07,330l.33.57L220,352.78A4.93,4.93,0,0,1,217.51,353.45Z" transform="translate(-24.95 -84.56)"/><circle class="cls-62" cx="178.33" cy="331.12" r="9.38" transform="translate(-140.67 12.09) rotate(-23.13)"/><path class="cls-63" d="M180.53,329.84a2.55,2.55,0,1,0-.91,3.48A2.54,2.54,0,0,0,180.53,329.84Z" transform="translate(-24.95 -84.56)"/><circle class="cls-64" cx="244.9" cy="337.62" r="9.38" transform="translate(-137.87 38.76) rotate(-23.13)"/><path class="cls-65" d="M247.1,336.34a2.55,2.55,0,1,0-.92,3.48A2.55,2.55,0,0,0,247.1,336.34Z" transform="translate(-24.95 -84.56)"/><circle class="cls-66" cx="359.08" cy="336.87" r="9.38" transform="translate(-128.4 83.55) rotate(-23.13)"/><path class="cls-67" d="M361.28,335.59a2.55,2.55,0,1,0-.91,3.48A2.54,2.54,0,0,0,361.28,335.59Z" transform="translate(-24.95 -84.56)"/><path class="cls-68" d="M379.45,339.33a9.38,9.38,0,1,0-3.37,12.82A9.38,9.38,0,0,0,379.45,339.33Z" transform="translate(-24.95 -84.56)"/><circle class="cls-69" cx="346.41" cy="259.5" r="2.55"/><circle class="cls-70" cx="438.27" cy="324.68" r="9.38" transform="translate(-123.01 140.92) rotate(-26.05)"/><path class="cls-71" d="M440.47,323.39a2.55,2.55,0,1,0-.92,3.49A2.56,2.56,0,0,0,440.47,323.39Z" transform="translate(-24.95 -84.56)"/><path class="cls-72" d="M462.15,296.78a9.38,9.38,0,1,0-3.36,12.83A9.37,9.37,0,0,0,462.15,296.78Z" transform="translate(-24.95 -84.56)"/><path class="cls-73" d="M456.26,300.23a2.55,2.55,0,1,0-.92,3.48A2.55,2.55,0,0,0,456.26,300.23Z" transform="translate(-24.95 -84.56)"/><path class="cls-74" d="M447.71,288.27a9.37,9.37,0,1,0-3.36,12.82A9.37,9.37,0,0,0,447.71,288.27Z" transform="translate(-24.95 -84.56)"/><path class="cls-75" d="M441.82,291.71a2.55,2.55,0,1,0-.91,3.49A2.56,2.56,0,0,0,441.82,291.71Z" transform="translate(-24.95 -84.56)"/><path class="cls-76" d="M433.28,280.34a9.38,9.38,0,1,0-3.37,12.83A9.38,9.38,0,0,0,433.28,280.34Z" transform="translate(-24.95 -84.56)"/><path class="cls-77" d="M427.38,283.79a2.55,2.55,0,1,0-.91,3.49A2.54,2.54,0,0,0,427.38,283.79Z" transform="translate(-24.95 -84.56)"/><path class="cls-78" d="M174.76,319.6a9.38,9.38,0,1,0-3.36,12.83A9.37,9.37,0,0,0,174.76,319.6Z" transform="translate(-24.95 -84.56)"/><circle class="cls-79" cx="141.72" cy="239.77" r="2.55"/><circle class="cls-80" cx="155" cy="317.54" r="9.38" transform="translate(-216.42 302.39) rotate(-75.31)"/><path class="cls-81" d="M157.2,316.26a2.55,2.55,0,1,0-.91,3.48A2.54,2.54,0,0,0,157.2,316.26Z" transform="translate(-24.95 -84.56)"/><path class="cls-82" d="M191.43,277.81a9.37,9.37,0,1,0-3.36,12.83A9.37,9.37,0,0,0,191.43,277.81Z" transform="translate(-24.95 -84.56)"/><path class="cls-83" d="M185.54,281.26a2.55,2.55,0,1,0-.91,3.48A2.55,2.55,0,0,0,185.54,281.26Z" transform="translate(-24.95 -84.56)"/><path class="cls-84" d="M203.9,271.26a9.38,9.38,0,1,0-3.37,12.82A9.38,9.38,0,0,0,203.9,271.26Z" transform="translate(-24.95 -84.56)"/><path class="cls-85" d="M198,274.7a2.55,2.55,0,1,0-.91,3.49A2.55,2.55,0,0,0,198,274.7Z" transform="translate(-24.95 -84.56)"/></g></g></svg>